<svg id="svg" version="1.1" width="400" height="400" viewBox="0 0 400 400" xmlns="http://www.w3.org/2000/svg" xmlns:xlink="http://www.w3.org/1999/xlink" ><g id="svgg"><path id="path0" d="M218.705 1.883 C 219.202 1.979,219.922 1.975,220.305 1.875 C 220.687 1.775,220.280 1.696,219.400 1.701 C 218.520 1.705,218.207 1.787,218.705 1.883 M398.114 186.200 C 398.117 187.300,398.195 187.703,398.287 187.095 C 398.379 186.486,398.377 185.586,398.282 185.095 C 398.187 184.603,398.111 185.100,398.114 186.200 M0.493 199.200 C 0.493 199.970,0.575 200.285,0.676 199.900 C 0.776 199.515,0.776 198.885,0.676 198.500 C 0.575 198.115,0.493 198.430,0.493 199.200 M398.109 212.800 C 398.109 213.790,398.187 214.195,398.282 213.700 C 398.378 213.205,398.378 212.395,398.282 211.900 C 398.187 211.405,398.109 211.810,398.109 212.800 M8.390 314.781 C 8.637 315.244,9.011 315.517,9.220 315.388 C 9.772 315.046,9.697 314.880,8.770 314.384 C 8.008 313.976,7.977 314.009,8.390 314.781 M1.324 319.000 C 1.326 320.320,1.401 320.812,1.490 320.093 C 1.579 319.374,1.577 318.294,1.486 317.693 C 1.395 317.092,1.322 317.680,1.324 319.000 M12.978 322.835 C 12.831 323.074,12.921 323.479,13.179 323.735 C 13.536 324.090,13.579 324.021,13.360 323.445 C 13.150 322.894,13.224 322.744,13.636 322.888 C 13.946 322.997,14.172 323.401,14.137 323.786 C 14.098 324.222,14.216 324.344,14.450 324.110 C 14.942 323.618,14.465 322.400,13.781 322.400 C 13.487 322.400,13.126 322.596,12.978 322.835 M14.900 324.665 C 14.150 324.968,14.298 325.880,15.134 326.099 C 15.725 326.253,15.833 326.106,15.687 325.345 C 15.588 324.825,15.483 324.414,15.453 324.432 C 15.424 324.449,15.175 324.554,14.900 324.665 M0.000 329.000 C 0.000 331.400,0.120 332.000,0.600 332.000 C 1.080 332.000,1.200 331.400,1.200 329.000 C 1.200 326.600,1.080 326.000,0.600 326.000 C 0.120 326.000,0.000 326.600,0.000 329.000 M387.039 334.738 C 386.900 334.961,386.982 335.265,387.220 335.412 C 387.835 335.793,388.232 335.272,387.718 334.758 C 387.431 334.471,387.207 334.464,387.039 334.738 M44.027 369.650 C 44.254 370.075,44.611 370.317,44.820 370.188 C 45.441 369.804,45.255 369.308,44.407 369.086 C 43.729 368.909,43.674 368.990,44.027 369.650 M62.952 396.581 C 62.532 397.675,63.974 398.613,64.577 397.637 C 64.700 397.438,64.441 397.369,64.001 397.484 C 63.428 397.634,63.200 397.497,63.200 397.004 C 63.200 396.545,63.408 396.394,63.821 396.553 C 64.177 396.689,64.337 396.622,64.197 396.395 C 63.840 395.818,63.209 395.912,62.952 396.581 M186.505 398.287 C 187.114 398.379,188.014 398.377,188.505 398.282 C 188.997 398.187,188.500 398.111,187.400 398.114 C 186.300 398.117,185.897 398.195,186.505 398.287 M212.300 398.282 C 212.795 398.378,213.605 398.378,214.100 398.282 C 214.595 398.187,214.190 398.109,213.200 398.109 C 212.210 398.109,211.805 398.187,212.300 398.282 M52.105 398.687 C 52.714 398.779,53.614 398.777,54.105 398.682 C 54.597 398.587,54.100 398.511,53.000 398.514 C 51.900 398.517,51.497 398.595,52.105 398.687 M342.700 398.689 C 343.415 398.778,344.585 398.778,345.300 398.689 C 346.015 398.601,345.430 398.528,344.000 398.528 C 342.570 398.528,341.985 398.601,342.700 398.689 M44.267 399.067 C 43.635 399.699,44.116 400.000,45.757 400.000 C 46.950 400.000,47.588 399.807,47.745 399.400 C 47.985 398.774,44.859 398.475,44.267 399.067 M347.448 399.381 C 347.756 400.184,352.566 400.302,352.302 399.500 C 352.199 399.191,351.198 398.955,349.674 398.881 C 347.586 398.780,347.247 398.856,347.448 399.381 " stroke="none" fill="#000000" fill-rule="evenodd"></path><path id="path1" d="M191.000 65.064 C 188.065 65.682,184.358 66.687,183.000 67.234 C 181.894 67.680,178.728 69.024,178.000 69.357 C 177.670 69.508,177.036 69.849,176.592 70.116 C 176.147 70.382,174.910 71.116,173.842 71.746 C 172.774 72.377,171.517 73.213,171.050 73.605 C 170.582 73.998,169.103 75.220,167.763 76.322 C 152.585 88.796,147.716 112.976,156.773 130.896 C 159.479 136.251,164.311 142.586,167.835 145.400 C 168.662 146.060,169.892 147.063,170.569 147.629 C 172.225 149.012,177.376 152.050,179.600 152.954 C 180.590 153.357,181.878 153.937,182.462 154.243 C 184.654 155.393,185.871 155.011,186.100 153.100 C 186.213 152.165,186.371 151.145,186.453 150.834 C 186.551 150.456,185.535 149.791,183.399 148.834 C 169.014 142.389,160.621 131.793,157.786 116.498 C 154.428 98.382,167.329 77.919,185.835 72.010 C 187.356 71.524,188.987 70.975,189.460 70.790 C 193.345 69.270,204.790 69.470,210.800 71.162 C 247.936 81.619,252.822 131.239,218.329 147.613 C 212.501 150.379,212.982 149.934,213.142 152.406 C 213.356 155.692,213.681 155.702,220.209 152.634 C 234.260 146.028,244.153 133.048,246.453 118.200 C 247.089 114.097,246.694 102.810,245.809 99.800 C 240.811 82.802,229.795 71.416,213.497 66.404 C 207.470 64.551,196.535 63.899,191.000 65.064 M193.700 81.860 C 193.425 81.973,193.200 82.669,193.200 83.405 C 193.200 84.763,192.359 86.000,191.435 86.000 C 188.114 86.000,182.075 91.475,180.530 95.886 C 177.538 104.427,182.441 111.924,193.000 114.952 C 194.320 115.331,196.276 115.901,197.346 116.220 C 198.416 116.539,199.580 116.800,199.933 116.800 C 204.112 116.800,208.701 120.840,207.466 123.431 C 204.705 129.220,192.408 126.713,191.307 120.137 L 190.982 118.200 184.635 118.090 L 178.288 117.979 178.496 121.490 C 178.913 128.545,182.918 133.294,190.878 136.171 C 192.671 136.819,192.762 136.926,192.878 138.525 L 193.000 140.200 199.400 140.200 L 205.800 140.200 206.000 138.666 C 206.195 137.172,206.274 137.106,208.959 136.169 C 218.016 133.010,222.469 126.000,220.674 117.727 C 219.283 111.316,214.941 107.857,205.200 105.396 C 203.770 105.035,201.520 104.464,200.200 104.128 C 193.221 102.350,191.378 100.405,193.947 97.529 C 196.996 94.116,205.565 96.141,206.252 100.436 C 206.623 102.753,206.876 102.835,213.255 102.711 L 219.000 102.600 219.119 99.871 C 219.381 93.859,215.436 89.093,207.524 85.864 C 206.182 85.315,206.038 85.106,205.924 83.531 L 205.800 81.800 200.000 81.726 C 196.810 81.686,193.975 81.746,193.700 81.860 M203.522 86.273 C 203.633 87.800,203.755 87.968,204.922 88.196 C 209.641 89.120,213.958 92.368,215.619 96.245 C 216.774 98.938,216.664 99.847,215.150 100.150 C 211.260 100.928,208.400 100.034,208.400 98.041 C 208.400 95.932,204.222 93.418,199.925 92.943 C 190.926 91.947,186.153 101.222,193.712 105.018 C 194.786 105.558,195.942 106.000,196.279 106.000 C 196.617 106.000,197.817 106.289,198.946 106.643 C 200.076 106.997,201.810 107.538,202.800 107.845 C 203.790 108.153,204.921 108.403,205.313 108.402 C 206.172 108.400,210.134 109.716,211.800 110.557 C 218.545 113.963,220.209 124.036,214.932 129.515 C 212.953 131.571,207.814 133.958,204.225 134.487 C 203.718 134.562,203.326 135.083,203.088 136.000 C 202.619 137.811,202.288 137.987,199.333 137.994 C 196.253 138.002,195.600 137.756,195.600 136.590 C 195.600 134.890,195.128 134.401,192.857 133.747 C 186.202 131.831,181.200 126.719,181.200 121.835 L 181.200 120.368 184.500 120.484 L 187.800 120.600 189.083 123.155 C 192.549 130.054,203.078 131.809,208.796 126.440 C 213.791 121.752,210.478 116.415,201.200 114.201 C 199.990 113.912,197.920 113.381,196.600 113.020 C 195.280 112.659,193.551 112.197,192.758 111.993 C 189.320 111.108,185.655 108.562,184.131 106.000 C 179.923 98.927,184.968 89.927,194.171 88.090 C 195.444 87.836,195.809 87.552,196.102 86.588 C 196.301 85.935,196.536 85.168,196.625 84.884 C 196.745 84.504,197.662 84.398,200.094 84.484 L 203.400 84.600 203.522 86.273 M122.201 106.230 C 118.599 108.108,118.226 109.234,116.837 122.432 C 116.638 124.319,116.283 127.199,116.048 128.832 C 115.812 130.464,115.345 134.050,115.009 136.800 C 114.672 139.550,114.210 143.330,113.982 145.200 C 113.753 147.070,113.398 150.220,113.194 152.200 C 112.989 154.180,112.648 156.970,112.434 158.400 C 112.221 159.830,111.758 163.520,111.406 166.600 C 111.054 169.680,110.512 173.932,110.202 176.048 C 109.684 179.586,109.695 180.047,110.345 181.758 C 111.208 184.032,111.755 184.661,125.497 199.184 C 126.651 200.403,128.271 202.124,129.097 203.008 C 129.924 203.893,133.049 207.223,136.043 210.408 C 139.037 213.594,142.317 217.094,143.332 218.187 C 145.460 220.478,145.713 221.494,145.524 227.000 L 145.400 230.600 142.359 230.800 C 137.705 231.106,138.000 230.251,138.000 243.426 C 138.000 254.679,138.006 254.759,138.889 255.377 C 140.409 256.442,191.932 256.307,193.256 255.235 L 194.200 254.471 194.200 243.450 C 194.200 230.388,194.457 231.109,189.687 230.800 L 186.600 230.600 186.366 213.200 C 186.235 203.497,185.954 195.181,185.729 194.400 C 185.093 192.189,183.188 188.543,182.030 187.319 C 181.447 186.704,180.077 185.121,178.985 183.803 C 177.893 182.484,175.668 179.874,174.041 178.003 C 172.413 176.131,170.703 174.150,170.241 173.600 C 169.254 172.426,164.773 167.205,161.871 163.848 C 160.753 162.555,158.659 160.096,157.219 158.384 C 149.631 149.365,148.132 147.651,146.384 146.000 L 144.479 144.200 144.333 135.400 C 144.145 124.025,143.356 122.483,136.936 120.939 C 135.431 120.577,133.975 120.223,133.700 120.153 C 133.348 120.063,133.199 118.985,133.196 116.513 C 133.185 107.911,128.100 103.155,122.201 106.230 M270.200 105.884 C 269.303 106.100,266.979 108.178,266.270 109.400 C 266.015 109.840,265.715 112.450,265.603 115.200 C 265.401 120.177,265.395 120.200,264.400 120.305 C 255.740 121.217,254.000 124.055,254.000 137.262 L 254.000 144.258 251.084 147.229 C 249.481 148.863,247.116 151.460,245.829 153.000 C 244.543 154.540,242.636 156.790,241.593 158.000 C 239.041 160.959,234.400 166.364,233.350 167.600 C 232.882 168.150,231.262 170.040,229.750 171.800 C 225.672 176.544,225.457 176.794,223.230 179.400 C 211.451 193.180,212.000 191.480,212.000 214.162 L 212.000 230.800 209.426 230.800 C 204.131 230.800,204.004 231.093,204.004 243.400 C 204.004 252.546,204.312 254.911,205.591 255.595 C 206.079 255.856,215.694 256.000,232.704 256.000 L 259.061 256.000 259.930 255.074 C 260.778 254.172,260.800 253.882,260.800 243.519 C 260.800 230.610,260.983 231.109,256.136 230.800 L 253.000 230.600 252.876 227.200 C 252.673 221.633,252.942 220.677,255.505 217.864 C 258.150 214.960,265.910 206.654,268.206 204.269 C 269.090 203.351,272.330 199.909,275.406 196.619 C 278.483 193.330,281.540 190.081,282.200 189.400 C 288.730 182.658,289.420 180.254,287.595 170.600 C 287.388 169.500,287.030 166.890,286.801 164.800 C 286.572 162.710,286.125 158.840,285.808 156.200 C 285.490 153.560,284.968 149.150,284.647 146.400 C 284.327 143.650,283.887 140.050,283.670 138.400 C 283.454 136.750,282.980 132.880,282.617 129.800 C 282.255 126.720,281.787 123.097,281.578 121.748 C 281.369 120.400,281.089 117.880,280.956 116.148 C 280.301 107.649,276.796 104.304,270.200 105.884 M126.893 111.500 C 127.573 112.272,128.146 125.685,128.618 151.871 C 128.902 167.614,128.807 167.200,133.251 172.062 C 134.928 173.898,137.592 176.907,139.170 178.748 C 140.748 180.590,142.288 182.345,142.591 182.648 C 142.895 182.952,144.525 184.816,146.213 186.790 C 148.713 189.713,149.547 190.429,150.707 190.646 C 154.631 191.383,154.571 188.747,150.484 180.764 C 134.703 149.937,135.464 151.879,138.389 149.877 C 141.333 147.862,140.682 147.273,158.399 168.000 C 166.578 177.570,174.200 186.462,175.336 187.761 C 181.213 194.481,181.000 193.504,181.000 213.800 L 181.000 230.600 166.000 230.600 L 151.000 230.600 150.779 224.800 C 150.506 217.622,150.833 218.311,144.560 211.703 C 141.686 208.676,136.838 203.500,133.786 200.200 C 130.734 196.900,127.509 193.461,126.619 192.558 C 121.945 187.815,116.521 181.775,115.937 180.663 C 115.165 179.190,115.529 174.099,117.246 162.400 C 117.488 160.750,117.831 157.960,118.008 156.200 C 118.336 152.937,118.858 148.705,119.632 143.021 C 119.871 141.272,120.227 138.392,120.424 136.621 C 120.621 134.849,121.059 131.150,121.398 128.400 C 121.736 125.650,122.259 121.213,122.559 118.539 C 123.130 113.456,123.215 113.160,124.529 111.700 C 125.504 110.617,126.073 110.569,126.893 111.500 M274.066 111.666 C 275.075 112.675,275.386 114.013,276.184 120.800 C 276.507 123.550,277.049 128.050,277.387 130.800 C 277.725 133.550,278.179 137.420,278.395 139.400 C 278.612 141.380,278.964 144.170,279.178 145.600 C 279.393 147.030,279.852 150.630,280.199 153.600 C 281.217 162.305,281.955 168.363,282.440 172.000 C 282.689 173.870,282.980 176.484,283.087 177.810 L 283.282 180.220 277.574 186.410 C 274.435 189.814,269.231 195.390,266.011 198.800 C 262.790 202.210,259.086 206.168,257.778 207.595 C 255.675 209.890,251.230 214.634,249.624 216.298 C 247.912 218.072,247.600 219.443,247.600 225.203 L 247.600 230.810 232.500 230.705 L 217.400 230.600 217.288 215.400 C 217.166 198.813,217.391 196.077,219.124 193.085 C 220.181 191.259,220.786 190.499,226.004 184.429 C 227.436 182.763,228.993 180.950,229.464 180.400 C 230.859 178.772,235.738 173.081,236.666 172.000 C 237.138 171.450,241.529 166.320,246.422 160.600 C 257.514 147.635,257.787 147.443,260.753 150.476 C 262.693 152.461,263.122 151.227,254.936 167.200 C 243.800 188.928,244.367 187.609,245.209 189.824 C 245.763 191.280,248.491 190.974,249.944 189.293 C 250.463 188.692,251.730 187.300,252.758 186.200 C 253.786 185.100,256.327 182.220,258.404 179.800 C 260.481 177.380,262.294 175.310,262.434 175.200 C 263.078 174.693,268.447 168.260,268.842 167.521 C 269.394 166.490,269.875 155.022,270.371 131.068 C 270.806 110.041,271.068 108.668,274.066 111.666 M137.265 126.500 C 139.059 127.952,139.200 128.665,139.200 136.302 C 139.200 142.930,139.134 143.645,138.500 143.835 C 138.115 143.950,136.963 144.485,135.941 145.022 C 134.919 145.560,134.001 146.000,133.902 146.000 C 133.601 146.000,133.140 127.422,133.423 126.685 C 133.740 125.859,136.320 125.735,137.265 126.500 M265.002 126.403 C 265.139 126.624,265.123 130.935,264.966 135.983 C 264.652 146.138,264.605 146.286,262.208 144.805 C 261.492 144.362,260.612 144.000,260.253 144.000 C 259.229 144.000,259.298 128.593,260.327 127.362 C 261.413 126.064,264.412 125.448,265.002 126.403 M196.800 145.069 C 192.311 145.999,189.482 152.611,191.582 157.267 C 195.523 166.005,208.400 163.197,208.400 153.600 C 208.400 147.502,203.270 143.730,196.800 145.069 M263.646 165.326 C 262.658 166.925,261.288 168.222,260.948 167.881 C 260.716 167.649,261.169 166.608,262.983 163.200 L 263.729 161.800 264.098 162.899 C 264.386 163.758,264.287 164.288,263.646 165.326 M136.585 165.450 C 138.276 169.012,138.186 169.481,136.220 167.345 C 134.578 165.561,134.232 164.725,134.572 163.371 C 134.916 161.997,134.975 162.057,136.585 165.450 M188.676 236.863 C 189.305 237.385,189.423 249.028,188.809 250.000 C 188.331 250.755,145.373 251.135,143.992 250.396 C 143.200 249.972,142.706 237.427,143.453 236.680 C 143.922 236.212,188.106 236.390,188.676 236.863 M255.110 243.147 C 255.186 247.635,255.076 249.868,254.761 250.247 C 254.019 251.141,210.186 251.063,209.843 250.167 C 209.515 249.312,209.532 237.001,209.862 236.671 C 210.006 236.527,220.221 236.452,232.562 236.505 L 255.000 236.600 255.110 243.147 M76.243 295.833 C 75.693 297.265,75.978 318.284,76.553 318.761 C 76.932 319.076,79.165 319.186,83.653 319.110 L 90.200 319.000 90.323 317.300 L 90.446 315.600 86.056 315.600 C 79.780 315.600,80.400 316.718,80.400 305.400 C 80.400 294.685,80.531 295.200,77.810 295.200 C 76.971 295.200,76.397 295.432,76.243 295.833 M144.286 295.448 C 144.129 295.605,144.000 297.563,144.000 299.800 C 144.000 304.589,143.969 304.643,141.964 303.377 C 139.798 302.010,137.762 302.080,135.671 303.595 C 128.293 308.939,133.669 322.227,141.608 318.271 L 143.642 317.258 144.020 318.253 C 144.345 319.106,144.613 319.231,145.899 319.124 L 147.400 319.000 147.400 307.200 L 147.400 295.400 145.986 295.281 C 145.208 295.215,144.443 295.290,144.286 295.448 M153.462 295.931 C 151.603 297.986,154.027 300.577,156.311 298.977 C 157.415 298.204,157.449 297.049,156.400 296.000 C 155.404 295.004,154.325 294.978,153.462 295.931 M215.272 295.873 C 212.304 297.335,211.217 300.551,212.584 303.823 C 213.293 305.521,213.060 306.245,211.549 307.026 C 209.855 307.902,208.399 310.435,208.407 312.492 C 208.428 317.927,214.361 320.703,219.996 317.914 L 222.191 316.828 223.472 318.070 C 224.603 319.166,224.948 319.286,226.410 319.089 C 228.679 318.785,228.683 318.734,226.631 316.653 C 224.677 314.670,224.661 314.494,226.212 312.000 C 227.700 309.608,227.770 308.930,226.610 308.170 C 225.354 307.347,224.218 308.095,223.795 310.023 C 223.588 310.967,222.199 312.044,221.844 311.537 C 221.792 311.461,221.113 310.590,220.336 309.600 C 218.189 306.864,218.192 306.667,220.399 305.161 C 222.159 303.960,224.000 301.357,224.000 300.070 C 224.000 296.622,218.813 294.128,215.272 295.873 M245.388 295.922 C 240.665 297.908,239.141 301.949,241.800 305.436 C 242.762 306.697,245.663 308.393,246.878 308.405 C 249.620 308.432,254.000 310.749,254.000 312.173 C 254.000 315.935,248.024 316.701,243.649 313.500 C 242.434 312.611,242.178 312.622,241.200 313.600 C 237.731 317.069,248.140 320.715,254.039 318.097 C 260.571 315.198,259.550 307.827,252.309 305.602 C 244.934 303.336,244.004 302.725,245.000 300.800 C 246.205 298.470,249.660 298.184,253.470 300.097 L 255.526 301.130 256.304 300.265 C 258.124 298.239,257.559 297.431,253.298 295.965 C 250.587 295.032,247.544 295.016,245.388 295.922 M219.669 298.662 C 221.079 299.939,219.290 304.000,217.318 304.000 C 215.574 304.000,214.925 299.769,216.500 298.670 C 217.679 297.847,218.765 297.844,219.669 298.662 M98.255 302.986 C 91.575 305.367,91.041 314.818,97.400 318.115 C 101.400 320.189,109.941 317.881,107.256 315.451 C 106.594 314.852,106.391 314.852,104.637 315.449 C 101.698 316.451,99.349 316.030,97.673 314.200 C 95.812 312.170,96.133 312.038,103.209 311.911 C 110.340 311.783,110.325 311.794,108.939 307.938 C 107.357 303.540,102.725 301.392,98.255 302.986 M113.292 310.677 L 113.400 319.000 114.634 319.120 C 116.538 319.306,116.765 318.672,116.888 312.816 C 117.020 306.534,117.419 305.885,121.178 305.829 C 124.595 305.779,124.959 306.456,125.200 313.311 L 125.400 319.000 126.800 319.000 L 128.200 319.000 128.311 312.608 C 128.435 305.416,128.210 304.442,126.129 303.156 C 124.413 302.095,121.454 302.248,118.825 303.533 C 116.676 304.582,116.882 304.586,116.728 303.500 C 116.621 302.751,116.313 302.579,114.892 302.477 L 113.184 302.353 113.292 310.677 M153.788 302.887 C 153.675 303.182,153.631 306.928,153.691 311.212 L 153.800 319.000 155.400 319.000 L 157.000 319.000 157.000 310.800 L 157.000 302.600 155.497 302.476 C 154.515 302.394,153.922 302.537,153.788 302.887 M162.092 310.677 L 162.200 319.000 163.324 319.129 C 165.402 319.367,165.600 318.824,165.600 312.895 C 165.600 307.056,165.642 306.936,167.996 305.960 C 171.428 304.537,172.519 306.232,172.789 313.400 L 173.000 319.000 174.400 319.000 L 175.800 319.000 175.910 312.301 C 176.003 306.588,175.921 305.451,175.350 304.580 C 173.826 302.254,170.549 301.753,167.659 303.405 C 165.554 304.608,165.684 304.602,165.528 303.500 C 165.421 302.751,165.113 302.579,163.692 302.477 L 161.984 302.353 162.092 310.677 M184.200 303.066 C 177.501 306.605,178.638 317.383,185.877 318.973 C 187.410 319.310,189.946 318.672,191.294 317.612 C 192.438 316.712,192.800 316.896,192.800 318.378 C 192.800 321.405,188.623 322.881,184.253 321.397 C 182.133 320.678,181.200 320.941,181.200 322.257 C 181.200 324.658,189.099 325.775,192.814 323.900 C 196.142 322.220,196.412 321.236,196.298 311.200 L 196.200 302.600 194.697 302.476 C 193.608 302.386,193.139 302.524,192.997 302.976 C 192.330 305.090,192.372 305.037,191.870 304.400 C 190.378 302.505,186.529 301.835,184.200 303.066 M264.437 303.324 C 261.472 304.797,261.245 307.819,264.200 306.473 C 267.440 304.996,272.097 305.704,272.485 307.731 C 272.822 309.495,272.294 309.821,270.321 309.068 C 265.459 307.211,260.810 309.458,260.803 313.668 C 260.795 317.879,265.361 320.027,270.306 318.138 C 272.003 317.490,272.051 317.495,272.658 318.361 C 273.117 319.017,273.603 319.213,274.538 319.122 L 275.800 319.000 275.922 312.800 C 276.065 305.560,275.754 304.533,273.015 303.207 C 270.704 302.088,266.816 302.141,264.437 303.324 M278.297 302.636 C 277.949 302.984,278.508 304.467,283.297 315.907 C 284.608 319.037,285.494 319.678,287.515 318.957 C 288.591 318.573,288.743 318.353,289.827 315.600 C 290.217 314.610,291.046 312.662,291.668 311.272 C 292.291 309.882,292.800 308.594,292.800 308.409 C 292.800 308.225,293.336 306.881,293.991 305.421 C 295.302 302.499,295.191 302.236,292.751 302.472 C 291.274 302.615,291.208 302.714,289.188 307.800 C 287.012 313.281,286.687 314.000,286.389 314.000 C 286.102 314.000,282.000 303.960,282.000 303.255 C 282.000 302.541,278.909 302.024,278.297 302.636 M302.600 303.158 C 292.124 308.009,299.868 322.822,310.486 318.242 C 313.887 316.775,312.941 314.255,309.437 315.449 C 306.498 316.451,304.149 316.030,302.473 314.200 C 300.612 312.171,300.933 312.038,308.004 311.911 C 315.106 311.784,314.943 311.889,313.776 308.180 C 312.292 303.461,307.042 301.102,302.600 303.158 M318.092 310.677 L 318.200 319.000 319.434 319.120 C 321.340 319.306,321.565 318.674,321.688 312.774 L 321.800 307.400 323.200 306.715 C 323.970 306.338,325.095 305.930,325.700 305.807 C 326.639 305.617,326.800 305.387,326.800 304.235 C 326.800 302.397,325.913 302.156,323.700 303.394 C 321.527 304.608,321.684 304.600,321.528 303.500 C 321.421 302.751,321.113 302.579,319.692 302.477 L 317.984 302.353 318.092 310.677 M1.600 303.975 C 1.600 304.634,3.075 306.125,3.326 305.720 C 3.442 305.533,3.101 304.960,2.568 304.448 C 2.036 303.935,1.600 303.722,1.600 303.975 M102.840 305.653 C 104.349 306.156,105.577 307.428,105.591 308.500 C 105.599 309.125,105.127 309.200,101.200 309.200 C 97.271 309.200,96.801 309.125,96.813 308.500 C 96.853 306.271,100.098 304.739,102.840 305.653 M307.640 305.653 C 309.149 306.156,310.377 307.428,310.391 308.500 C 310.399 309.125,309.927 309.200,306.000 309.200 C 302.071 309.200,301.601 309.125,301.613 308.500 C 301.653 306.271,304.898 304.739,307.640 305.653 M142.976 306.673 C 144.533 307.806,144.512 313.540,142.946 314.771 C 140.536 316.666,136.860 315.428,135.958 312.417 C 134.513 307.595,139.093 303.846,142.976 306.673 M191.564 306.699 C 192.781 307.392,192.795 307.438,192.797 310.667 L 192.800 313.935 191.453 314.767 C 187.130 317.439,182.029 313.761,183.572 309.085 C 184.652 305.811,188.162 304.763,191.564 306.699 M217.342 311.270 C 219.939 314.342,220.082 314.954,218.340 315.561 C 213.558 317.228,209.819 312.920,213.087 309.509 C 214.497 308.038,214.671 308.110,217.342 311.270 M6.060 311.180 C 6.232 311.696,6.781 311.788,6.830 311.310 C 6.846 311.150,6.644 310.948,6.380 310.860 C 6.116 310.772,5.972 310.916,6.060 311.180 M271.173 311.386 C 274.300 313.003,272.381 316.551,268.377 316.553 C 265.959 316.554,264.430 315.465,264.413 313.729 C 264.388 311.206,268.242 309.870,271.173 311.386 M7.260 313.580 C 7.348 313.844,7.550 314.047,7.710 314.030 C 8.188 313.981,8.096 313.432,7.580 313.260 C 7.316 313.172,7.172 313.316,7.260 313.580 M0.800 319.200 C 0.800 320.533,0.622 321.600,0.400 321.600 C 0.180 321.600,0.000 322.590,0.000 323.800 C 0.000 325.489,0.139 326.000,0.600 326.000 C 1.099 326.000,1.200 325.222,1.200 321.400 C 1.200 318.870,1.110 316.800,1.000 316.800 C 0.890 316.800,0.800 317.880,0.800 319.200 M9.660 317.180 C 9.832 317.696,10.381 317.788,10.430 317.310 C 10.447 317.150,10.244 316.948,9.980 316.860 C 9.716 316.772,9.572 316.916,9.660 317.180 M10.800 319.511 C 10.800 319.941,12.432 321.301,12.667 321.067 C 12.901 320.832,11.541 319.200,11.111 319.200 C 10.940 319.200,10.800 319.340,10.800 319.511 M13.200 323.111 C 13.200 323.541,14.832 324.901,15.067 324.667 C 15.301 324.432,13.941 322.800,13.511 322.800 C 13.340 322.800,13.200 322.940,13.200 323.111 M16.800 329.200 C 16.800 329.420,17.070 329.600,17.400 329.600 C 17.730 329.600,18.000 329.870,18.000 330.200 C 18.000 330.530,18.180 330.800,18.400 330.800 C 19.023 330.800,18.872 330.189,18.069 329.462 C 17.236 328.708,16.800 328.618,16.800 329.200 M19.200 332.800 C 19.200 333.020,19.470 333.200,19.800 333.200 C 20.130 333.200,20.400 333.470,20.400 333.800 C 20.400 334.130,20.580 334.400,20.800 334.400 C 21.423 334.400,21.272 333.789,20.469 333.062 C 19.636 332.308,19.200 332.218,19.200 332.800 M383.439 337.138 C 383.300 337.361,383.382 337.665,383.620 337.812 C 384.235 338.193,384.632 337.672,384.118 337.158 C 383.831 336.871,383.607 336.864,383.439 337.138 M43.017 368.372 C 42.744 368.814,43.375 369.292,43.744 368.922 C 44.125 368.542,44.054 368.000,43.624 368.000 C 43.417 368.000,43.144 368.168,43.017 368.372 M45.200 371.911 C 45.200 372.329,46.708 373.600,47.205 373.600 C 47.422 373.600,47.600 373.420,47.600 373.200 C 47.600 372.980,47.330 372.800,47.000 372.800 C 46.670 372.800,46.400 372.530,46.400 372.200 C 46.400 371.870,46.130 371.600,45.800 371.600 C 45.470 371.600,45.200 371.740,45.200 371.911 M47.600 375.600 C 47.600 375.820,47.870 376.000,48.200 376.000 C 48.530 376.000,48.800 376.270,48.800 376.600 C 48.800 376.930,49.070 377.200,49.400 377.200 C 50.228 377.200,50.151 376.707,49.195 375.889 C 48.297 375.120,47.600 374.994,47.600 375.600 M51.455 379.878 C 51.005 380.328,51.182 380.800,51.800 380.800 C 52.130 380.800,52.400 381.070,52.400 381.400 C 52.400 381.730,52.670 382.000,53.000 382.000 C 53.330 382.000,53.597 381.865,53.593 381.700 C 53.581 381.189,51.726 379.608,51.455 379.878 M53.855 383.478 C 53.405 383.928,53.582 384.400,54.200 384.400 C 54.530 384.400,54.800 384.670,54.800 385.000 C 54.800 385.630,55.417 385.820,55.745 385.290 C 55.996 384.882,54.187 383.146,53.855 383.478 M57.455 388.278 C 57.005 388.728,57.182 389.200,57.800 389.200 C 58.130 389.200,58.400 389.470,58.400 389.800 C 58.400 390.430,59.017 390.620,59.345 390.090 C 59.596 389.682,57.787 387.946,57.455 388.278 M59.855 391.878 C 59.405 392.328,59.582 392.800,60.200 392.800 C 60.530 392.800,60.800 393.070,60.800 393.400 C 60.800 394.030,61.417 394.220,61.745 393.690 C 61.996 393.282,60.187 391.546,59.855 391.878 M62.261 395.473 C 61.806 395.928,61.979 396.400,62.600 396.400 C 62.930 396.400,63.200 396.670,63.200 397.000 C 63.200 397.330,63.470 397.600,63.800 397.600 C 64.130 397.600,64.400 397.759,64.400 397.953 C 64.400 398.148,64.805 398.408,65.300 398.533 C 66.193 398.757,66.194 398.753,65.400 398.064 C 64.960 397.682,64.132 396.884,63.561 396.291 C 62.989 395.697,62.404 395.329,62.261 395.473 M47.867 399.067 C 47.231 399.702,47.720 400.000,49.400 400.000 C 50.390 400.000,51.200 399.830,51.200 399.623 C 51.200 399.416,51.965 399.177,52.900 399.093 C 53.870 399.006,53.211 398.910,51.367 398.870 C 49.588 398.831,48.013 398.920,47.867 399.067 M344.700 399.081 C 345.635 399.172,346.400 399.416,346.400 399.623 C 346.400 399.830,346.685 400.000,347.033 400.000 C 348.872 400.000,347.074 398.995,345.169 398.958 C 343.471 398.925,343.369 398.951,344.700 399.081 " stroke="none" fill="#ffffff" fill-rule="evenodd"></path><path id="path2" d="M398.093 200.400 C 398.093 201.170,398.175 201.485,398.276 201.100 C 398.376 200.715,398.376 200.085,398.276 199.700 C 398.175 199.315,398.093 199.630,398.093 200.400 M341.600 399.600 C 341.600 399.820,341.870 400.000,342.200 400.000 C 342.530 400.000,342.800 399.820,342.800 399.600 C 342.800 399.380,342.530 399.200,342.200 399.200 C 341.870 399.200,341.600 399.380,341.600 399.600 " stroke="none" fill="#404080" fill-rule="evenodd"></path><path id="path3" d="M182.637 1.267 C 182.217 1.511,179.967 1.792,177.637 1.892 C 175.308 1.992,173.305 2.230,173.187 2.421 C 173.069 2.612,171.361 2.879,169.390 3.015 C 167.420 3.151,165.624 3.414,165.399 3.601 C 165.174 3.787,163.822 4.057,162.395 4.200 C 160.968 4.344,159.629 4.627,159.420 4.830 C 159.211 5.034,158.450 5.200,157.728 5.200 C 157.007 5.200,155.738 5.455,154.908 5.766 C 154.079 6.078,152.609 6.424,151.642 6.536 C 150.676 6.648,149.776 6.910,149.642 7.119 C 149.509 7.328,148.515 7.606,147.433 7.736 C 146.351 7.867,145.280 8.160,145.053 8.387 C 144.826 8.614,144.271 8.801,143.820 8.802 C 143.369 8.804,142.484 9.074,141.854 9.402 C 141.224 9.731,140.093 10.000,139.342 10.000 C 138.496 10.000,137.887 10.229,137.745 10.600 C 137.604 10.967,136.998 11.200,136.186 11.200 C 135.455 11.200,134.587 11.470,134.257 11.800 C 133.927 12.130,133.117 12.400,132.457 12.400 C 131.797 12.400,130.987 12.670,130.657 13.000 C 130.327 13.330,129.594 13.600,129.029 13.600 C 128.463 13.600,128.000 13.791,128.000 14.024 C 128.000 14.257,127.820 14.336,127.600 14.200 C 127.380 14.064,127.200 14.143,127.200 14.376 C 127.200 14.609,126.654 14.800,125.987 14.800 C 125.279 14.800,124.679 15.049,124.545 15.400 C 124.417 15.734,123.822 16.000,123.206 16.000 C 122.597 16.000,121.874 16.270,121.600 16.600 C 121.326 16.930,120.696 17.200,120.200 17.200 C 119.704 17.200,119.083 17.459,118.820 17.776 C 118.557 18.093,117.860 18.408,117.271 18.476 C 116.674 18.545,116.244 18.821,116.300 19.100 C 116.358 19.388,115.996 19.600,115.449 19.600 C 114.926 19.600,114.274 19.870,114.000 20.200 C 113.726 20.530,113.068 20.800,112.538 20.800 C 112.009 20.800,111.471 21.070,111.345 21.400 C 111.218 21.730,110.703 22.000,110.200 22.000 C 109.697 22.000,109.182 22.270,109.055 22.600 C 108.929 22.930,108.364 23.200,107.800 23.200 C 107.236 23.200,106.671 23.470,106.545 23.800 C 106.418 24.130,105.968 24.400,105.545 24.400 C 105.121 24.400,104.671 24.670,104.545 25.000 C 104.418 25.330,103.878 25.600,103.345 25.600 C 102.811 25.600,102.271 25.870,102.145 26.200 C 102.018 26.530,101.587 26.800,101.186 26.800 C 100.785 26.800,100.212 27.025,99.912 27.300 C 99.174 27.976,97.989 28.720,96.900 29.191 C 96.405 29.405,96.000 29.765,96.000 29.990 C 96.000 30.216,95.544 30.400,94.987 30.400 C 94.431 30.400,93.871 30.670,93.745 31.000 C 93.618 31.330,93.264 31.600,92.957 31.600 C 92.651 31.600,92.400 31.870,92.400 32.200 C 92.400 32.575,92.021 32.800,91.387 32.800 C 90.831 32.800,90.271 33.070,90.145 33.400 C 90.018 33.730,89.664 34.000,89.357 34.000 C 89.051 34.000,88.800 34.270,88.800 34.600 C 88.800 34.975,88.421 35.200,87.787 35.200 C 87.231 35.200,86.671 35.470,86.545 35.800 C 86.418 36.130,86.064 36.400,85.757 36.400 C 85.451 36.400,85.200 36.658,85.200 36.973 C 85.200 37.302,84.730 37.601,84.100 37.673 C 83.481 37.745,83.044 38.019,83.100 38.300 C 83.155 38.575,82.840 38.800,82.400 38.800 C 81.960 38.800,81.600 39.049,81.600 39.353 C 81.600 39.658,81.222 40.006,80.760 40.126 C 80.297 40.247,80.038 40.538,80.183 40.773 C 80.337 41.021,80.114 41.200,79.652 41.200 C 79.215 41.200,78.587 41.470,78.257 41.800 C 77.927 42.130,77.464 42.400,77.229 42.400 C 76.993 42.400,76.800 42.670,76.800 43.000 C 76.800 43.330,76.549 43.600,76.243 43.600 C 75.936 43.600,75.582 43.870,75.455 44.200 C 75.329 44.530,74.969 44.800,74.655 44.800 C 74.342 44.800,73.982 45.070,73.855 45.400 C 73.729 45.730,73.386 46.000,73.094 46.000 C 72.802 46.000,72.121 46.532,71.581 47.183 C 71.042 47.834,70.375 48.374,70.100 48.383 C 69.825 48.392,69.600 48.670,69.600 49.000 C 69.600 49.330,69.420 49.600,69.200 49.600 C 68.980 49.600,68.453 49.915,68.029 50.300 C 66.759 51.452,66.046 52.000,65.817 52.000 C 65.438 52.000,64.000 53.583,64.000 54.000 C 64.000 54.220,63.796 54.400,63.547 54.400 C 62.990 54.400,52.000 65.436,52.000 65.997 C 52.000 66.218,51.816 66.400,51.590 66.400 C 51.365 66.400,51.009 66.850,50.800 67.400 C 50.591 67.950,50.235 68.400,50.010 68.400 C 49.784 68.400,49.600 68.670,49.600 69.000 C 49.600 69.330,49.330 69.600,49.000 69.600 C 48.670 69.600,48.400 69.870,48.400 70.200 C 48.400 70.530,48.130 70.800,47.800 70.800 C 47.470 70.800,47.200 71.070,47.200 71.400 C 47.200 71.730,46.930 72.000,46.600 72.000 C 46.270 72.000,46.000 72.251,46.000 72.557 C 46.000 72.864,45.730 73.218,45.400 73.345 C 45.070 73.471,44.800 73.851,44.800 74.187 C 44.800 74.524,44.623 74.800,44.408 74.800 C 44.192 74.800,43.902 75.250,43.764 75.800 C 43.626 76.350,43.263 76.800,42.957 76.800 C 42.650 76.800,42.400 76.986,42.400 77.213 C 42.400 77.441,41.860 78.155,41.200 78.800 C 40.540 79.445,40.000 80.255,40.000 80.599 C 40.000 80.943,39.730 81.329,39.400 81.455 C 39.070 81.582,38.800 81.936,38.800 82.243 C 38.800 82.549,38.530 82.800,38.200 82.800 C 37.870 82.800,37.600 83.141,37.600 83.557 C 37.600 83.974,37.330 84.418,37.000 84.545 C 36.670 84.671,36.400 85.141,36.400 85.587 C 36.400 86.043,36.136 86.400,35.800 86.400 C 35.470 86.400,35.200 86.651,35.200 86.957 C 35.200 87.264,34.928 87.619,34.596 87.746 C 34.264 87.873,34.016 88.118,34.044 88.289 C 34.203 89.261,33.925 90.000,33.400 90.000 C 33.070 90.000,32.800 90.248,32.800 90.551 C 32.800 90.854,32.530 91.326,32.200 91.600 C 31.870 91.874,31.600 92.436,31.600 92.849 C 31.600 93.262,31.330 93.600,31.000 93.600 C 30.667 93.600,30.400 93.956,30.400 94.400 C 30.400 94.840,30.223 95.200,30.008 95.200 C 29.792 95.200,29.506 95.637,29.372 96.171 C 29.237 96.705,28.874 97.239,28.564 97.359 C 28.254 97.478,28.000 98.031,28.000 98.587 C 28.000 99.221,27.775 99.600,27.400 99.600 C 27.070 99.600,26.800 99.949,26.800 100.376 C 26.800 100.803,26.631 101.257,26.424 101.385 C 26.216 101.513,25.631 102.469,25.124 103.509 C 24.616 104.549,23.975 105.638,23.700 105.929 C 23.425 106.219,23.200 106.785,23.200 107.186 C 23.200 107.587,22.930 108.018,22.600 108.145 C 22.270 108.271,22.000 108.811,22.000 109.345 C 22.000 109.878,21.730 110.418,21.400 110.545 C 21.070 110.671,20.800 111.211,20.800 111.745 C 20.800 112.278,20.530 112.818,20.200 112.945 C 19.870 113.071,19.600 113.553,19.600 114.016 C 19.600 114.479,19.330 115.127,19.000 115.457 C 18.670 115.787,18.400 116.472,18.400 116.980 C 18.400 117.487,18.130 118.126,17.800 118.400 C 17.470 118.674,17.200 119.307,17.200 119.806 C 17.200 120.306,16.930 120.818,16.600 120.945 C 16.249 121.079,16.000 121.679,16.000 122.387 C 16.000 123.054,15.822 123.600,15.605 123.600 C 15.387 123.600,15.096 124.309,14.958 125.175 C 14.819 126.042,14.457 126.846,14.153 126.963 C 13.849 127.079,13.600 127.721,13.600 128.387 C 13.600 129.054,13.409 129.600,13.176 129.600 C 12.943 129.600,12.864 129.780,13.000 130.000 C 13.136 130.220,13.057 130.400,12.824 130.400 C 12.591 130.400,12.400 130.953,12.400 131.629 C 12.400 132.304,12.130 133.127,11.800 133.457 C 11.470 133.787,11.200 134.584,11.200 135.229 C 11.200 135.873,11.028 136.400,10.818 136.400 C 10.608 136.400,10.328 137.075,10.196 137.900 C 10.064 138.725,9.761 139.752,9.523 140.183 C 9.285 140.613,9.005 141.603,8.901 142.383 C 8.797 143.162,8.462 144.286,8.156 144.880 C 7.850 145.474,7.594 146.554,7.587 147.280 C 7.580 148.006,7.310 148.949,6.987 149.376 C 6.664 149.804,6.400 150.803,6.400 151.596 C 6.400 152.390,6.215 153.225,5.989 153.451 C 5.764 153.676,5.469 154.837,5.334 156.031 C 5.200 157.224,4.951 158.380,4.780 158.600 C 4.609 158.820,4.351 160.168,4.205 161.595 C 4.059 163.022,3.787 164.374,3.601 164.599 C 3.414 164.824,3.151 166.620,3.015 168.590 C 2.879 170.561,2.626 172.269,2.453 172.386 C 2.159 172.586,2.013 174.240,1.819 179.600 C 1.775 180.810,1.524 182.200,1.261 182.689 C 0.644 183.838,0.619 216.673,1.235 216.878 C 1.460 216.953,1.734 219.290,1.859 222.206 C 1.981 225.063,2.229 227.492,2.410 227.605 C 2.591 227.717,2.859 229.337,3.006 231.205 C 3.152 233.072,3.418 234.780,3.596 235.000 C 3.773 235.220,4.034 236.559,4.174 237.976 C 4.314 239.393,4.583 240.743,4.771 240.976 C 4.959 241.209,5.236 242.478,5.387 243.796 C 5.538 245.114,5.808 246.374,5.987 246.596 C 6.166 246.818,6.420 247.789,6.552 248.754 C 6.684 249.719,6.954 250.709,7.152 250.954 C 7.350 251.199,7.623 252.210,7.758 253.200 C 7.893 254.190,8.183 255.060,8.402 255.133 C 8.621 255.207,8.800 255.842,8.800 256.544 C 8.800 257.247,9.056 258.188,9.369 258.634 C 9.682 259.081,10.004 259.976,10.085 260.623 C 10.166 261.271,10.451 262.195,10.719 262.679 C 10.987 263.162,11.244 264.028,11.292 264.604 C 11.340 265.179,11.608 265.841,11.889 266.074 C 12.170 266.307,12.400 267.003,12.400 267.620 C 12.400 268.238,12.670 269.013,13.000 269.343 C 13.330 269.673,13.600 270.371,13.600 270.895 C 13.600 271.419,13.864 272.196,14.187 272.624 C 14.510 273.051,14.780 273.811,14.787 274.313 C 14.794 274.814,15.070 275.329,15.400 275.455 C 15.734 275.583,16.000 276.178,16.000 276.794 C 16.000 277.403,16.270 278.126,16.600 278.400 C 16.930 278.674,17.200 279.196,17.200 279.560 C 17.200 279.924,17.469 280.605,17.797 281.074 C 18.125 281.543,18.465 282.348,18.552 282.863 C 18.638 283.378,18.910 283.755,19.155 283.700 C 19.406 283.644,19.600 284.129,19.600 284.813 C 19.600 285.521,19.849 286.121,20.200 286.255 C 20.530 286.382,20.800 286.813,20.800 287.214 C 20.800 287.615,21.040 288.182,21.333 288.475 C 21.625 288.768,21.991 289.509,22.144 290.120 C 22.298 290.732,22.598 291.125,22.812 290.993 C 23.030 290.858,23.200 291.287,23.200 291.976 C 23.200 292.797,23.397 293.200,23.800 293.200 C 24.130 293.200,24.400 293.547,24.400 293.971 C 24.400 294.396,24.670 295.013,25.000 295.343 C 25.330 295.673,25.600 296.213,25.600 296.543 C 25.600 296.873,25.825 297.388,26.100 297.688 C 26.776 298.426,27.520 299.611,27.991 300.700 C 28.205 301.195,28.565 301.600,28.790 301.600 C 29.016 301.600,29.200 302.031,29.200 302.557 C 29.200 303.084,29.470 303.618,29.800 303.745 C 30.130 303.871,30.400 304.251,30.400 304.587 C 30.400 304.924,30.670 305.200,31.000 305.200 C 31.400 305.200,31.600 305.600,31.600 306.400 C 31.600 307.200,31.800 307.600,32.200 307.600 C 32.530 307.600,32.800 307.870,32.800 308.200 C 32.800 308.530,33.070 308.800,33.400 308.800 C 33.800 308.800,34.000 309.200,34.000 310.000 C 34.000 310.800,34.200 311.200,34.600 311.200 C 34.930 311.200,35.200 311.448,35.200 311.751 C 35.200 312.054,35.470 312.526,35.800 312.800 C 36.130 313.074,36.400 313.636,36.400 314.049 C 36.400 314.462,36.670 314.800,37.000 314.800 C 37.330 314.800,37.600 315.005,37.600 315.256 C 37.600 315.507,37.860 315.912,38.178 316.156 C 38.496 316.400,38.811 316.860,38.878 317.177 C 38.945 317.494,39.495 318.253,40.100 318.863 C 40.705 319.474,41.200 320.159,41.200 320.387 C 41.200 320.614,41.384 320.800,41.610 320.800 C 41.835 320.800,42.191 321.250,42.400 321.800 C 42.609 322.350,42.965 322.800,43.190 322.800 C 43.416 322.800,43.600 323.160,43.600 323.600 C 43.600 324.044,43.867 324.400,44.200 324.400 C 44.530 324.400,44.800 324.670,44.800 325.000 C 44.800 325.330,45.070 325.600,45.400 325.600 C 45.730 325.600,46.000 325.780,46.000 326.000 C 46.000 326.220,46.315 326.747,46.700 327.171 C 47.869 328.459,48.400 329.155,48.400 329.397 C 48.400 329.523,48.940 330.155,49.600 330.800 C 50.260 331.445,50.800 332.159,50.800 332.387 C 50.800 332.614,51.025 332.801,51.300 332.801 C 51.575 332.802,52.160 333.341,52.600 334.000 C 53.040 334.659,53.625 335.198,53.900 335.199 C 54.175 335.199,54.400 335.388,54.400 335.619 C 54.400 336.028,64.995 346.800,65.397 346.800 C 65.765 346.800,67.200 348.392,67.200 348.800 C 67.200 349.020,67.451 349.200,67.757 349.200 C 68.064 349.200,68.418 349.470,68.545 349.800 C 68.671 350.130,69.051 350.400,69.387 350.400 C 69.724 350.400,70.000 350.627,70.000 350.905 C 70.000 351.385,70.964 352.050,72.500 352.629 C 72.885 352.774,73.200 353.142,73.200 353.447 C 73.200 353.751,73.425 354.008,73.700 354.017 C 73.975 354.026,74.642 354.566,75.181 355.217 C 75.721 355.868,76.396 356.400,76.681 356.400 C 76.967 356.400,77.200 356.577,77.200 356.792 C 77.200 357.008,77.650 357.298,78.200 357.436 C 78.750 357.574,79.200 357.937,79.200 358.243 C 79.200 358.550,79.470 358.800,79.800 358.800 C 80.130 358.800,80.400 359.070,80.400 359.400 C 80.400 359.733,80.756 360.000,81.200 360.000 C 81.640 360.000,82.000 360.177,82.000 360.392 C 82.000 360.608,82.450 360.898,83.000 361.036 C 83.550 361.174,84.000 361.537,84.000 361.843 C 84.000 362.150,84.251 362.400,84.557 362.400 C 84.864 362.400,85.218 362.670,85.345 363.000 C 85.471 363.330,85.946 363.600,86.400 363.600 C 86.854 363.600,87.329 363.870,87.455 364.200 C 87.582 364.530,87.936 364.800,88.243 364.800 C 88.549 364.800,88.800 364.962,88.800 365.161 C 88.800 365.359,89.340 365.710,90.000 365.940 C 90.660 366.170,91.200 366.548,91.200 366.779 C 91.200 367.011,91.451 367.200,91.757 367.200 C 92.064 367.200,92.418 367.470,92.545 367.800 C 92.671 368.130,93.231 368.400,93.787 368.400 C 94.421 368.400,94.800 368.625,94.800 369.000 C 94.800 369.333,95.156 369.600,95.600 369.600 C 96.040 369.600,96.400 369.777,96.400 369.992 C 96.400 370.208,96.837 370.494,97.371 370.628 C 97.905 370.763,98.439 371.126,98.559 371.436 C 98.678 371.746,99.211 372.000,99.745 372.000 C 100.278 372.000,100.818 372.270,100.945 372.600 C 101.071 372.930,101.631 373.200,102.187 373.200 C 102.775 373.200,103.158 373.406,103.100 373.691 C 103.045 373.960,103.450 374.248,104.000 374.329 C 104.550 374.410,105.144 374.730,105.320 375.038 C 105.496 375.347,105.879 375.600,106.171 375.600 C 106.463 375.600,106.926 375.870,107.200 376.200 C 107.474 376.530,108.036 376.800,108.449 376.800 C 108.862 376.800,109.200 376.977,109.200 377.192 C 109.200 377.408,109.693 377.709,110.296 377.860 C 110.899 378.011,111.632 378.375,111.925 378.667 C 112.218 378.960,112.782 379.200,113.180 379.200 C 113.577 379.200,114.126 379.470,114.400 379.800 C 114.674 380.130,115.304 380.400,115.800 380.400 C 116.296 380.400,116.926 380.670,117.200 381.000 C 117.474 381.330,118.107 381.600,118.606 381.600 C 119.106 381.600,119.618 381.870,119.745 382.200 C 119.871 382.530,120.320 382.800,120.742 382.800 C 121.163 382.800,122.024 383.069,122.654 383.398 C 123.284 383.726,124.186 383.996,124.657 383.998 C 125.129 383.999,125.618 384.270,125.745 384.600 C 125.871 384.930,126.443 385.200,127.016 385.200 C 127.589 385.200,128.327 385.470,128.657 385.800 C 128.987 386.130,129.707 386.400,130.257 386.400 C 130.807 386.400,131.527 386.670,131.857 387.000 C 132.187 387.330,132.997 387.600,133.657 387.600 C 134.317 387.600,135.127 387.870,135.457 388.200 C 135.787 388.530,136.674 388.800,137.429 388.800 C 138.183 388.800,138.800 388.964,138.800 389.165 C 138.800 389.366,139.535 389.654,140.433 389.806 C 141.331 389.957,142.546 390.332,143.133 390.638 C 143.720 390.944,144.860 391.196,145.667 391.198 C 146.473 391.199,147.195 391.384,147.270 391.609 C 147.345 391.835,148.305 392.126,149.403 392.256 C 150.501 392.386,151.621 392.671,151.891 392.888 C 152.160 393.105,153.420 393.374,154.691 393.486 C 155.961 393.598,157.095 393.840,157.211 394.024 C 157.326 394.208,158.586 394.479,160.011 394.626 C 161.435 394.774,162.780 395.038,163.000 395.213 C 163.220 395.388,164.840 395.656,166.600 395.808 C 168.360 395.960,170.078 396.231,170.418 396.412 C 170.757 396.592,173.094 396.856,175.609 396.997 C 178.125 397.138,180.367 397.404,180.592 397.588 C 181.669 398.467,218.470 398.410,220.134 397.526 C 220.537 397.311,222.871 397.053,225.320 396.951 C 227.770 396.849,229.872 396.608,229.991 396.414 C 230.111 396.221,231.735 395.944,233.600 395.800 C 235.465 395.656,237.083 395.395,237.196 395.220 C 237.308 395.046,238.563 394.781,239.984 394.631 C 241.405 394.482,242.755 394.209,242.984 394.026 C 243.213 393.843,244.273 393.590,245.339 393.463 C 246.406 393.337,247.486 393.067,247.739 392.863 C 247.993 392.660,249.085 392.388,250.167 392.260 C 251.249 392.131,252.320 391.840,252.547 391.613 C 252.774 391.386,253.541 391.200,254.251 391.200 C 254.962 391.200,255.813 390.930,256.143 390.600 C 256.473 390.270,257.351 390.000,258.095 390.000 C 258.839 390.000,259.796 389.736,260.224 389.413 C 260.651 389.090,261.450 388.814,262.000 388.800 C 262.550 388.786,263.349 388.510,263.776 388.187 C 264.204 387.864,265.064 387.600,265.689 387.600 C 266.330 387.600,266.925 387.338,267.055 387.000 C 267.184 386.664,267.780 386.400,268.410 386.400 C 269.861 386.400,270.855 386.013,270.574 385.558 C 270.452 385.361,270.909 385.200,271.589 385.200 C 272.269 385.200,272.914 384.968,273.023 384.684 C 273.132 384.401,273.793 384.125,274.493 384.072 C 275.193 384.018,276.043 383.735,276.382 383.441 C 276.722 383.148,277.495 382.790,278.100 382.646 C 278.705 382.502,279.200 382.208,279.200 381.992 C 279.200 381.777,279.628 381.600,280.151 381.600 C 280.674 381.600,281.326 381.330,281.600 381.000 C 281.874 380.670,282.526 380.400,283.049 380.400 C 283.572 380.400,284.000 380.227,284.000 380.016 C 284.000 379.805,284.720 379.416,285.600 379.153 C 286.480 378.889,287.200 378.522,287.200 378.337 C 287.200 378.152,287.547 378.000,287.971 378.000 C 288.396 378.000,288.982 377.760,289.275 377.467 C 289.568 377.175,290.301 376.811,290.904 376.660 C 291.507 376.509,292.000 376.208,292.000 375.992 C 292.000 375.777,292.338 375.600,292.751 375.600 C 293.164 375.600,293.726 375.330,294.000 375.000 C 294.274 374.670,294.724 374.400,295.000 374.400 C 295.276 374.400,295.726 374.130,296.000 373.800 C 296.274 373.470,296.836 373.200,297.249 373.200 C 297.662 373.200,298.000 372.930,298.000 372.600 C 298.000 372.200,298.400 372.000,299.200 372.000 C 300.000 372.000,300.400 371.800,300.400 371.400 C 300.400 371.070,300.738 370.800,301.151 370.800 C 301.564 370.800,302.126 370.530,302.400 370.200 C 302.674 369.870,303.127 369.600,303.406 369.600 C 303.686 369.600,304.018 369.330,304.145 369.000 C 304.271 368.670,304.831 368.400,305.387 368.400 C 306.021 368.400,306.400 368.175,306.400 367.800 C 306.400 367.470,306.648 367.200,306.951 367.200 C 307.254 367.200,307.726 366.930,308.000 366.600 C 308.274 366.270,308.836 366.000,309.249 366.000 C 309.662 366.000,310.000 365.730,310.000 365.400 C 310.000 365.070,310.270 364.800,310.600 364.800 C 310.930 364.800,311.200 364.530,311.200 364.200 C 311.200 363.800,311.600 363.600,312.400 363.600 C 313.200 363.600,313.600 363.400,313.600 363.000 C 313.600 362.670,313.851 362.400,314.157 362.400 C 314.464 362.400,314.818 362.130,314.945 361.800 C 315.071 361.470,315.546 361.200,316.000 361.200 C 316.454 361.200,316.929 360.930,317.055 360.600 C 317.182 360.270,317.536 360.000,317.843 360.000 C 318.149 360.000,318.400 359.751,318.400 359.447 C 318.400 359.142,318.778 358.794,319.240 358.674 C 319.775 358.534,319.971 358.276,319.778 357.965 C 319.612 357.696,319.639 357.573,319.838 357.691 C 320.396 358.022,322.084 357.259,321.802 356.803 C 321.665 356.582,321.839 356.400,322.189 356.400 C 322.539 356.400,322.929 356.130,323.055 355.800 C 323.182 355.470,323.536 355.200,323.843 355.200 C 324.149 355.200,324.400 354.951,324.400 354.647 C 324.400 354.342,324.715 353.988,325.100 353.858 C 326.167 353.500,327.150 352.763,329.048 350.900 C 330.000 349.965,330.964 349.200,331.189 349.200 C 331.415 349.200,331.600 348.930,331.600 348.600 C 331.600 348.270,331.776 348.000,331.991 348.000 C 333.005 348.000,347.150 333.867,346.900 333.105 C 346.845 332.937,347.070 332.800,347.400 332.800 C 347.730 332.800,348.000 332.620,348.000 332.400 C 348.000 331.881,349.481 330.400,350.000 330.400 C 350.220 330.400,350.400 330.212,350.400 329.983 C 350.400 329.531,350.996 328.725,352.100 327.683 C 352.485 327.320,352.800 326.787,352.800 326.499 C 352.800 326.211,353.070 325.871,353.400 325.745 C 353.730 325.618,354.000 325.264,354.000 324.957 C 354.000 324.651,354.270 324.400,354.600 324.400 C 354.930 324.400,355.200 324.124,355.200 323.787 C 355.200 323.451,355.470 323.071,355.800 322.945 C 356.130 322.818,356.400 322.483,356.400 322.200 C 356.400 321.917,356.670 321.582,357.000 321.455 C 357.330 321.329,357.600 320.859,357.600 320.413 C 357.600 319.957,357.864 319.600,358.200 319.600 C 358.530 319.600,358.800 319.330,358.800 319.000 C 358.800 318.670,359.070 318.400,359.400 318.400 C 359.733 318.400,360.000 318.044,360.000 317.600 C 360.000 317.160,360.177 316.800,360.392 316.800 C 360.608 316.800,360.898 316.350,361.036 315.800 C 361.174 315.250,361.537 314.800,361.843 314.800 C 362.150 314.800,362.400 314.549,362.400 314.243 C 362.400 313.936,362.670 313.582,363.000 313.455 C 363.330 313.329,363.600 312.769,363.600 312.213 C 363.600 311.579,363.825 311.200,364.200 311.200 C 364.530 311.200,364.800 310.949,364.800 310.643 C 364.800 310.336,365.072 309.981,365.404 309.854 C 365.736 309.727,365.984 309.482,365.956 309.311 C 365.797 308.339,366.075 307.600,366.600 307.600 C 366.930 307.600,367.200 307.352,367.200 307.049 C 367.200 306.746,367.470 306.274,367.800 306.000 C 368.130 305.726,368.400 305.164,368.400 304.751 C 368.400 304.338,368.670 304.000,369.000 304.000 C 369.375 304.000,369.600 303.621,369.600 302.987 C 369.600 302.431,369.870 301.871,370.200 301.745 C 370.530 301.618,370.800 301.341,370.800 301.129 C 370.800 300.916,371.070 300.473,371.400 300.143 C 371.730 299.813,372.000 299.196,372.000 298.771 C 372.000 298.347,372.270 298.000,372.600 298.000 C 372.965 298.000,373.200 297.628,373.200 297.049 C 373.200 296.526,373.470 295.874,373.800 295.600 C 374.130 295.326,374.400 294.783,374.400 294.394 C 374.400 294.004,374.670 293.582,375.000 293.455 C 375.330 293.329,375.600 292.764,375.600 292.200 C 375.600 291.636,375.870 291.071,376.200 290.945 C 376.530 290.818,376.800 290.396,376.800 290.006 C 376.800 289.617,377.070 289.074,377.400 288.800 C 377.730 288.526,378.000 287.986,378.000 287.600 C 378.000 287.214,378.270 286.674,378.600 286.400 C 378.930 286.126,379.200 285.551,379.200 285.122 C 379.200 284.694,379.470 284.073,379.800 283.743 C 380.130 283.413,380.400 282.815,380.400 282.414 C 380.400 282.013,380.670 281.582,381.000 281.455 C 381.330 281.329,381.600 280.791,381.600 280.262 C 381.600 279.732,381.870 279.074,382.200 278.800 C 382.530 278.526,382.800 277.806,382.800 277.200 C 382.800 276.594,383.070 275.874,383.400 275.600 C 383.730 275.326,384.000 274.751,384.000 274.322 C 384.000 273.894,384.270 273.273,384.600 272.943 C 384.930 272.613,385.206 271.861,385.213 271.271 C 385.220 270.682,385.490 269.851,385.813 269.424 C 386.136 268.996,386.400 268.309,386.400 267.895 C 386.400 267.481,386.670 266.873,387.000 266.543 C 387.330 266.213,387.606 265.461,387.613 264.871 C 387.620 264.282,387.890 263.451,388.213 263.024 C 388.536 262.596,388.800 261.777,388.800 261.204 C 388.800 260.630,388.997 259.963,389.238 259.722 C 389.479 259.481,389.770 258.591,389.884 257.744 C 389.998 256.897,390.341 255.848,390.646 255.413 C 390.951 254.978,391.200 253.957,391.200 253.144 C 391.200 252.332,391.403 251.599,391.651 251.516 C 391.899 251.434,392.194 250.384,392.306 249.183 C 392.419 247.982,392.661 246.903,392.843 246.784 C 393.026 246.665,393.291 245.585,393.434 244.384 C 393.576 243.183,393.838 242.018,394.016 241.795 C 394.194 241.572,394.459 240.222,394.605 238.795 C 394.751 237.368,395.025 236.013,395.214 235.784 C 395.404 235.555,395.674 233.935,395.814 232.184 C 395.954 230.433,396.224 228.813,396.413 228.585 C 396.602 228.357,396.861 226.210,396.988 223.814 C 397.118 221.365,397.429 219.206,397.698 218.882 C 398.366 218.078,398.382 181.142,397.715 180.339 C 397.465 180.037,397.145 177.816,397.006 175.404 C 396.866 172.991,396.606 170.924,396.428 170.809 C 396.250 170.694,395.987 169.085,395.845 167.232 C 395.702 165.380,395.429 163.670,395.237 163.432 C 395.045 163.195,394.785 161.856,394.659 160.459 C 394.532 159.061,394.264 157.711,394.061 157.459 C 393.859 157.206,393.593 156.153,393.470 155.118 C 393.347 154.082,393.056 152.879,392.823 152.444 C 392.591 152.009,392.400 151.173,392.400 150.587 C 392.400 150.001,392.147 148.954,391.838 148.260 C 391.529 147.567,391.173 146.281,391.048 145.403 C 390.922 144.525,390.635 143.745,390.409 143.670 C 390.184 143.595,390.000 142.953,390.000 142.243 C 390.000 141.534,389.736 140.604,389.413 140.176 C 389.090 139.749,388.820 138.874,388.813 138.231 C 388.806 137.589,388.536 136.771,388.213 136.414 C 387.890 136.057,387.580 135.167,387.524 134.436 C 387.468 133.705,387.193 133.019,386.911 132.911 C 386.630 132.803,386.400 132.117,386.400 131.386 C 386.400 130.655,386.130 129.787,385.800 129.457 C 385.470 129.127,385.200 128.453,385.200 127.960 C 385.200 127.467,384.931 126.765,384.601 126.401 C 384.272 126.038,383.961 125.237,383.910 124.622 C 383.859 124.008,383.589 123.417,383.309 123.310 C 383.029 123.202,382.800 122.678,382.800 122.145 C 382.800 121.611,382.530 121.071,382.200 120.945 C 381.865 120.816,381.600 120.222,381.600 119.600 C 381.600 118.978,381.335 118.384,381.000 118.255 C 380.647 118.120,380.400 117.520,380.400 116.800 C 380.400 116.080,380.153 115.480,379.800 115.345 C 379.470 115.218,379.200 114.678,379.200 114.145 C 379.200 113.611,378.930 113.071,378.600 112.945 C 378.270 112.818,378.000 112.387,378.000 111.986 C 378.000 111.585,377.730 110.987,377.400 110.657 C 377.070 110.327,376.800 109.679,376.800 109.216 C 376.800 108.753,376.530 108.271,376.200 108.145 C 375.870 108.018,375.600 107.503,375.600 107.000 C 375.600 106.497,375.356 105.992,375.057 105.877 C 374.758 105.763,374.400 105.101,374.262 104.408 C 374.123 103.714,373.840 103.252,373.633 103.379 C 373.426 103.507,373.195 103.204,373.119 102.706 C 373.043 102.208,372.760 101.845,372.491 101.900 C 372.206 101.958,372.000 101.575,372.000 100.987 C 372.000 100.431,371.730 99.871,371.400 99.745 C 371.070 99.618,370.800 99.187,370.800 98.786 C 370.800 98.385,370.575 97.812,370.300 97.512 C 369.624 96.774,368.880 95.589,368.409 94.500 C 368.195 94.005,367.835 93.600,367.610 93.600 C 367.384 93.600,367.200 93.262,367.200 92.849 C 367.200 92.436,366.930 91.874,366.600 91.600 C 366.270 91.326,366.000 90.854,366.000 90.551 C 366.000 90.248,365.730 90.000,365.400 90.000 C 365.070 90.000,364.800 89.662,364.800 89.249 C 364.800 88.836,364.530 88.274,364.200 88.000 C 363.870 87.726,363.600 87.254,363.600 86.951 C 363.600 86.648,363.330 86.400,363.000 86.400 C 362.664 86.400,362.400 86.043,362.400 85.587 C 362.400 85.141,362.130 84.671,361.800 84.545 C 361.470 84.418,361.200 83.974,361.200 83.557 C 361.200 83.141,360.930 82.800,360.600 82.800 C 360.270 82.800,360.000 82.530,360.000 82.200 C 360.000 81.870,359.730 81.600,359.400 81.600 C 359.070 81.600,358.800 81.262,358.800 80.849 C 358.800 80.436,358.530 79.874,358.200 79.600 C 357.870 79.326,357.600 78.854,357.600 78.551 C 357.600 78.248,357.330 78.000,357.000 78.000 C 356.670 78.000,356.400 77.730,356.400 77.400 C 356.400 77.070,356.130 76.800,355.800 76.800 C 355.470 76.800,355.200 76.628,355.200 76.418 C 355.200 75.783,353.318 73.215,353.050 73.484 C 352.912 73.621,352.800 73.343,352.800 72.867 C 352.800 72.363,352.549 72.000,352.200 72.000 C 351.870 72.000,351.600 71.730,351.600 71.400 C 351.600 71.070,351.330 70.800,351.000 70.800 C 350.670 70.800,350.400 70.530,350.400 70.200 C 350.400 69.870,350.130 69.600,349.800 69.600 C 349.470 69.600,349.200 69.324,349.200 68.987 C 349.200 68.651,348.930 68.271,348.600 68.145 C 348.270 68.018,348.000 67.665,348.000 67.359 C 348.000 66.770,333.545 52.008,332.950 51.989 C 332.757 51.983,332.075 51.443,331.433 50.789 C 330.792 50.135,330.027 49.600,329.733 49.600 C 329.440 49.600,329.200 49.330,329.200 49.000 C 329.200 48.670,328.930 48.400,328.600 48.400 C 328.270 48.400,328.000 48.130,328.000 47.800 C 328.000 47.470,327.730 47.200,327.400 47.200 C 327.070 47.200,326.800 46.930,326.800 46.600 C 326.800 46.261,326.442 46.000,325.976 46.000 C 325.523 46.000,325.264 45.820,325.400 45.600 C 325.536 45.380,325.484 45.200,325.285 45.200 C 325.085 45.200,324.507 44.840,324.000 44.400 C 323.493 43.960,322.835 43.600,322.539 43.600 C 322.242 43.600,322.000 43.330,322.000 43.000 C 322.000 42.670,321.730 42.400,321.400 42.400 C 321.070 42.400,320.800 42.130,320.800 41.800 C 320.800 41.470,320.552 41.200,320.249 41.200 C 319.946 41.200,319.474 40.930,319.200 40.600 C 318.926 40.270,318.364 40.000,317.951 40.000 C 317.538 40.000,317.200 39.730,317.200 39.400 C 317.200 39.070,316.930 38.800,316.600 38.800 C 316.270 38.800,316.000 38.530,316.000 38.200 C 316.000 37.867,315.644 37.600,315.200 37.600 C 314.760 37.600,314.400 37.423,314.400 37.208 C 314.400 36.992,313.950 36.702,313.400 36.564 C 312.850 36.426,312.400 36.063,312.400 35.757 C 312.400 35.450,312.029 35.200,311.576 35.200 C 311.123 35.200,310.865 35.018,311.003 34.795 C 311.142 34.570,310.708 34.282,310.027 34.145 C 309.352 34.010,308.800 33.652,308.800 33.350 C 308.800 33.047,308.552 32.800,308.249 32.800 C 307.946 32.800,307.474 32.530,307.200 32.200 C 306.926 31.870,306.383 31.600,305.994 31.600 C 305.604 31.600,305.182 31.330,305.055 31.000 C 304.929 30.670,304.369 30.400,303.813 30.400 C 303.179 30.400,302.800 30.175,302.800 29.800 C 302.800 29.470,302.549 29.200,302.243 29.200 C 301.936 29.200,301.582 28.930,301.455 28.600 C 301.329 28.270,300.769 28.000,300.213 28.000 C 299.656 28.000,299.200 27.816,299.200 27.590 C 299.200 27.365,298.795 26.997,298.300 26.773 C 296.941 26.158,295.585 25.345,295.086 24.846 C 294.841 24.601,294.393 24.400,294.091 24.400 C 293.790 24.400,293.273 24.130,292.943 23.800 C 292.613 23.470,292.015 23.200,291.614 23.200 C 291.213 23.200,290.782 22.930,290.655 22.600 C 290.529 22.270,289.989 22.000,289.455 22.000 C 288.922 22.000,288.382 21.730,288.255 21.400 C 288.129 21.070,287.589 20.800,287.055 20.800 C 286.522 20.800,285.982 20.530,285.855 20.200 C 285.729 19.870,285.247 19.600,284.784 19.600 C 284.321 19.600,283.673 19.330,283.343 19.000 C 283.013 18.670,282.300 18.400,281.759 18.400 C 281.218 18.400,280.671 18.130,280.545 17.800 C 280.416 17.465,279.822 17.200,279.200 17.200 C 278.578 17.200,277.984 16.935,277.855 16.600 C 277.729 16.270,277.214 15.994,276.713 15.987 C 276.211 15.980,275.451 15.710,275.024 15.387 C 274.596 15.064,273.761 14.800,273.166 14.800 C 272.572 14.800,271.982 14.530,271.855 14.200 C 271.729 13.870,271.157 13.600,270.584 13.600 C 270.011 13.600,269.273 13.330,268.943 13.000 C 268.613 12.670,267.816 12.400,267.171 12.400 C 266.527 12.400,266.000 12.236,266.000 12.035 C 266.000 11.834,265.235 11.542,264.300 11.386 C 263.365 11.230,262.484 10.919,262.343 10.696 C 262.201 10.473,261.169 10.203,260.050 10.095 C 258.931 9.988,258.112 9.742,258.231 9.550 C 258.350 9.357,258.302 9.186,258.124 9.169 C 257.946 9.153,257.440 9.067,257.000 8.979 C 256.560 8.891,255.717 8.778,255.128 8.727 C 254.538 8.676,254.144 8.491,254.251 8.317 C 254.359 8.143,254.212 7.985,253.924 7.967 C 252.425 7.873,250.867 7.507,249.740 6.984 C 249.046 6.663,247.867 6.400,247.120 6.400 C 246.372 6.400,245.589 6.230,245.380 6.021 C 245.171 5.813,243.830 5.520,242.400 5.370 C 240.970 5.220,239.708 4.954,239.595 4.778 C 239.482 4.602,238.132 4.338,236.595 4.189 C 235.058 4.041,233.530 3.776,233.200 3.600 C 232.870 3.424,230.895 3.156,228.810 3.006 C 226.726 2.855,224.740 2.582,224.398 2.399 C 224.056 2.216,220.873 1.976,217.324 1.867 C 213.776 1.757,210.508 1.472,210.063 1.234 C 208.931 0.628,183.685 0.659,182.637 1.267 M208.600 65.169 C 242.271 71.724,257.943 109.485,238.578 137.400 C 233.396 144.870,222.859 152.650,215.103 154.732 C 213.326 155.209,213.324 155.207,213.142 152.406 C 212.982 149.934,212.501 150.379,218.329 147.613 C 252.822 131.239,247.936 81.619,210.800 71.162 C 204.790 69.470,193.345 69.270,189.460 70.790 C 188.987 70.975,187.356 71.524,185.835 72.010 C 167.329 77.919,154.428 98.382,157.786 116.498 C 160.621 131.793,169.014 142.389,183.399 148.834 C 185.535 149.791,186.551 150.456,186.453 150.834 C 186.371 151.145,186.213 152.165,186.100 153.100 C 185.871 155.011,184.654 155.393,182.462 154.243 C 181.878 153.937,180.590 153.357,179.600 152.954 C 177.376 152.050,172.225 149.012,170.569 147.629 C 169.892 147.063,168.662 146.060,167.835 145.400 C 154.694 134.907,148.853 114.099,154.250 97.000 C 156.681 89.299,162.142 80.941,167.763 76.322 C 169.103 75.220,170.582 73.998,171.050 73.605 C 171.517 73.213,172.774 72.377,173.842 71.746 C 174.910 71.116,176.147 70.382,176.592 70.116 C 177.520 69.559,177.928 69.367,180.400 68.319 C 183.357 67.066,183.707 66.939,186.000 66.283 C 192.493 64.426,202.299 63.942,208.600 65.169 M205.924 83.531 C 206.038 85.106,206.182 85.315,207.524 85.864 C 215.436 89.093,219.381 93.859,219.119 99.871 L 219.000 102.600 213.255 102.711 C 206.876 102.835,206.623 102.753,206.252 100.436 C 205.565 96.141,196.996 94.116,193.947 97.529 C 191.378 100.405,193.221 102.350,200.200 104.128 C 201.520 104.464,203.770 105.035,205.200 105.396 C 214.941 107.857,219.283 111.316,220.674 117.727 C 222.469 126.000,218.016 133.010,208.959 136.169 C 206.274 137.106,206.195 137.172,206.000 138.666 L 205.800 140.200 199.400 140.200 L 193.000 140.200 192.878 138.525 C 192.762 136.926,192.671 136.819,190.878 136.171 C 182.918 133.294,178.913 128.545,178.496 121.490 L 178.288 117.979 184.635 118.090 L 190.982 118.200 191.307 120.137 C 192.408 126.713,204.705 129.220,207.466 123.431 C 208.701 120.840,204.112 116.800,199.933 116.800 C 199.580 116.800,198.416 116.539,197.346 116.220 C 196.276 115.901,194.320 115.331,193.000 114.952 C 182.441 111.924,177.538 104.427,180.530 95.886 C 182.075 91.475,188.114 86.000,191.435 86.000 C 192.359 86.000,193.200 84.763,193.200 83.405 C 193.200 81.652,193.245 81.640,200.000 81.726 L 205.800 81.800 205.924 83.531 M196.625 84.884 C 196.536 85.168,196.301 85.935,196.102 86.588 C 195.809 87.552,195.444 87.836,194.171 88.090 C 191.632 88.597,188.496 90.134,186.837 91.685 C 179.289 98.739,182.375 109.321,192.758 111.993 C 193.551 112.197,195.280 112.659,196.600 113.020 C 197.920 113.381,199.990 113.912,201.200 114.201 C 210.478 116.415,213.791 121.752,208.796 126.440 C 203.078 131.809,192.549 130.054,189.083 123.155 L 187.800 120.600 184.500 120.484 L 181.200 120.368 181.200 121.835 C 181.200 126.719,186.202 131.831,192.857 133.747 C 195.128 134.401,195.600 134.890,195.600 136.590 C 195.600 137.756,196.253 138.002,199.333 137.994 C 202.288 137.987,202.619 137.811,203.088 136.000 C 203.326 135.083,203.718 134.562,204.225 134.487 C 220.612 132.069,223.479 114.317,208.313 109.175 C 207.055 108.749,205.705 108.401,205.313 108.402 C 204.921 108.403,203.790 108.153,202.800 107.845 C 201.810 107.538,200.076 106.997,198.946 106.643 C 197.817 106.289,196.617 106.000,196.279 106.000 C 195.942 106.000,194.786 105.558,193.712 105.018 C 186.153 101.222,190.926 91.947,199.925 92.943 C 204.222 93.418,208.400 95.932,208.400 98.041 C 208.400 100.034,211.260 100.928,215.150 100.150 C 220.151 99.150,211.958 89.574,204.922 88.196 C 203.755 87.968,203.633 87.800,203.522 86.273 L 203.400 84.600 200.094 84.484 C 197.662 84.398,196.745 84.504,196.625 84.884 M129.041 106.420 C 131.956 107.831,133.189 110.825,133.196 116.513 C 133.199 118.985,133.348 120.063,133.700 120.153 C 133.975 120.223,135.431 120.577,136.936 120.939 C 143.356 122.483,144.145 124.025,144.333 135.400 L 144.479 144.200 146.384 146.000 C 148.132 147.651,149.631 149.365,157.219 158.384 C 158.659 160.096,160.753 162.555,161.871 163.848 C 164.773 167.205,169.254 172.426,170.241 173.600 C 170.703 174.150,172.413 176.131,174.041 178.003 C 175.668 179.874,177.893 182.484,178.985 183.803 C 180.077 185.121,181.447 186.704,182.030 187.319 C 183.188 188.543,185.093 192.189,185.729 194.400 C 185.954 195.181,186.235 203.497,186.366 213.200 L 186.600 230.600 189.687 230.800 C 194.457 231.109,194.200 230.388,194.200 243.450 L 194.200 254.471 193.256 255.235 C 191.932 256.307,140.409 256.442,138.889 255.377 C 138.006 254.759,138.000 254.679,138.000 243.426 C 138.000 230.251,137.705 231.106,142.359 230.800 L 145.400 230.600 145.524 227.000 C 145.713 221.494,145.460 220.478,143.332 218.187 C 142.317 217.094,139.037 213.594,136.043 210.408 C 133.049 207.223,129.924 203.893,129.097 203.008 C 128.271 202.124,126.651 200.403,125.497 199.184 C 111.755 184.661,111.208 184.032,110.345 181.758 C 109.695 180.047,109.684 179.586,110.202 176.048 C 110.512 173.932,111.054 169.680,111.406 166.600 C 111.758 163.520,112.221 159.830,112.434 158.400 C 112.648 156.970,112.989 154.180,113.194 152.200 C 113.398 150.220,113.753 147.070,113.982 145.200 C 114.210 143.330,114.672 139.550,115.009 136.800 C 115.345 134.050,115.812 130.464,116.048 128.832 C 116.283 127.199,116.638 124.319,116.837 122.432 C 118.033 111.070,118.476 109.141,120.260 107.527 C 122.551 105.453,126.116 105.004,129.041 106.420 M275.874 106.025 C 279.004 107.205,280.496 110.176,280.956 116.148 C 281.089 117.880,281.369 120.400,281.578 121.748 C 281.787 123.097,282.255 126.720,282.617 129.800 C 282.980 132.880,283.454 136.750,283.670 138.400 C 283.887 140.050,284.327 143.650,284.647 146.400 C 284.968 149.150,285.490 153.560,285.808 156.200 C 286.125 158.840,286.572 162.710,286.801 164.800 C 287.030 166.890,287.388 169.500,287.595 170.600 C 289.420 180.254,288.730 182.658,282.200 189.400 C 281.540 190.081,278.483 193.330,275.406 196.619 C 272.330 199.909,269.090 203.351,268.206 204.269 C 265.910 206.654,258.150 214.960,255.505 217.864 C 252.942 220.677,252.673 221.633,252.876 227.200 L 253.000 230.600 256.136 230.800 C 260.983 231.109,260.800 230.610,260.800 243.519 C 260.800 253.882,260.778 254.172,259.930 255.074 L 259.061 256.000 232.704 256.000 C 215.694 256.000,206.079 255.856,205.591 255.595 C 204.312 254.911,204.004 252.546,204.004 243.400 C 204.004 231.093,204.131 230.800,209.426 230.800 L 212.000 230.800 212.000 214.162 C 212.000 193.369,212.235 192.303,218.415 185.046 C 221.234 181.735,224.598 177.797,226.141 176.000 C 226.613 175.449,228.237 173.559,229.750 171.800 C 231.262 170.040,232.882 168.150,233.350 167.600 C 234.400 166.364,239.041 160.959,241.593 158.000 C 242.636 156.790,244.543 154.540,245.829 153.000 C 247.116 151.460,249.481 148.863,251.084 147.229 L 254.000 144.258 254.000 137.262 C 254.000 124.055,255.740 121.217,264.400 120.305 C 265.395 120.200,265.401 120.177,265.603 115.200 C 265.715 112.450,266.015 109.840,266.270 109.400 C 266.979 108.178,269.303 106.100,270.200 105.884 C 271.703 105.524,274.746 105.599,275.874 106.025 M124.529 111.700 C 123.215 113.160,123.130 113.456,122.559 118.539 C 122.259 121.213,121.736 125.650,121.398 128.400 C 121.059 131.150,120.621 134.849,120.424 136.621 C 120.227 138.392,119.871 141.272,119.632 143.021 C 118.858 148.705,118.336 152.937,118.008 156.200 C 117.831 157.960,117.488 160.750,117.246 162.400 C 115.529 174.099,115.165 179.190,115.937 180.663 C 116.521 181.775,121.945 187.815,126.619 192.558 C 127.509 193.461,130.734 196.900,133.786 200.200 C 136.838 203.500,141.686 208.676,144.560 211.703 C 150.833 218.311,150.506 217.622,150.779 224.800 L 151.000 230.600 166.000 230.600 L 181.000 230.600 181.000 213.800 C 181.000 193.504,181.213 194.481,175.336 187.761 C 174.200 186.462,166.578 177.570,158.399 168.000 C 140.682 147.273,141.333 147.862,138.389 149.877 C 135.464 151.879,134.703 149.937,150.484 180.764 C 154.571 188.747,154.631 191.383,150.707 190.646 C 149.547 190.429,148.713 189.713,146.213 186.790 C 144.525 184.816,142.895 182.952,142.591 182.648 C 142.288 182.345,140.748 180.590,139.170 178.748 C 137.592 176.907,134.928 173.898,133.251 172.062 C 128.807 167.200,128.902 167.614,128.618 151.871 C 127.901 112.091,127.523 108.375,124.529 111.700 M271.384 111.768 C 270.844 112.592,270.694 115.447,270.371 131.068 C 269.875 155.022,269.394 166.490,268.842 167.521 C 268.447 168.260,263.078 174.693,262.434 175.200 C 262.294 175.310,260.481 177.380,258.404 179.800 C 256.327 182.220,253.786 185.100,252.758 186.200 C 251.730 187.300,250.463 188.692,249.944 189.293 C 248.491 190.974,245.763 191.280,245.209 189.824 C 244.367 187.609,243.800 188.928,254.936 167.200 C 263.122 151.227,262.693 152.461,260.753 150.476 C 257.787 147.443,257.514 147.635,246.422 160.600 C 241.529 166.320,237.138 171.450,236.666 172.000 C 235.738 173.081,230.859 178.772,229.464 180.400 C 228.993 180.950,227.436 182.763,226.004 184.429 C 216.676 195.280,217.128 193.673,217.288 215.400 L 217.400 230.600 232.500 230.705 L 247.600 230.810 247.600 225.203 C 247.600 219.443,247.912 218.072,249.624 216.298 C 251.230 214.634,255.675 209.890,257.778 207.595 C 259.086 206.168,262.790 202.210,266.011 198.800 C 269.231 195.390,274.435 189.814,277.574 186.410 L 283.282 180.220 283.087 177.810 C 282.980 176.484,282.689 173.870,282.440 172.000 C 281.955 168.363,281.217 162.305,280.199 153.600 C 279.852 150.630,279.393 147.030,279.178 145.600 C 278.964 144.170,278.612 141.380,278.395 139.400 C 278.179 137.420,277.725 133.550,277.387 130.800 C 277.049 128.050,276.507 123.550,276.184 120.800 C 275.099 111.578,273.491 108.552,271.384 111.768 M133.423 126.685 C 133.140 127.422,133.601 146.000,133.902 146.000 C 134.001 146.000,134.919 145.560,135.941 145.022 C 136.963 144.485,138.115 143.950,138.500 143.835 C 139.525 143.528,139.562 129.522,138.541 127.989 C 137.161 125.916,134.024 125.117,133.423 126.685 M261.614 126.294 C 259.790 127.011,259.627 127.809,259.613 136.100 C 259.601 143.145,259.671 144.000,260.253 144.000 C 260.612 144.000,261.492 144.362,262.208 144.805 C 264.605 146.286,264.652 146.138,264.966 135.983 C 265.294 125.401,265.125 124.913,261.614 126.294 M204.018 145.791 C 210.481 149.045,209.522 160.180,202.617 162.052 C 192.872 164.696,186.377 152.973,194.094 146.670 C 196.562 144.654,200.983 144.262,204.018 145.791 M262.983 163.200 C 260.532 167.804,260.260 168.975,262.010 167.391 C 263.649 165.908,264.496 164.086,264.098 162.899 L 263.729 161.800 262.983 163.200 M134.572 163.371 C 134.232 164.725,134.578 165.561,136.220 167.345 C 138.186 169.481,138.276 169.012,136.585 165.450 C 134.975 162.057,134.916 161.997,134.572 163.371 M143.453 236.680 C 142.706 237.427,143.200 249.972,143.992 250.396 C 145.373 251.135,188.331 250.755,188.809 250.000 C 189.423 249.028,189.305 237.385,188.676 236.863 C 188.106 236.390,143.922 236.212,143.453 236.680 M209.862 236.671 C 209.532 237.001,209.515 249.312,209.843 250.167 C 210.186 251.063,254.019 251.141,254.761 250.247 C 255.076 249.868,255.186 247.635,255.110 243.147 L 255.000 236.600 232.562 236.505 C 220.221 236.452,210.006 236.527,209.862 236.671 M79.767 295.443 C 80.320 295.655,80.400 296.911,80.400 305.400 C 80.400 316.718,79.780 315.600,86.056 315.600 L 90.446 315.600 90.323 317.300 L 90.200 319.000 83.653 319.110 C 75.154 319.253,76.000 320.550,76.000 307.384 C 76.000 294.400,76.113 294.041,79.767 295.443 M147.400 307.200 L 147.400 319.000 145.899 319.124 C 144.613 319.231,144.345 319.106,144.020 318.253 L 143.642 317.258 141.608 318.271 C 133.669 322.227,128.293 308.939,135.671 303.595 C 137.762 302.080,139.798 302.010,141.964 303.377 C 143.969 304.643,144.000 304.589,144.000 299.800 C 144.000 295.207,144.040 295.117,145.986 295.281 L 147.400 295.400 147.400 307.200 M156.400 296.000 C 157.449 297.049,157.415 298.204,156.311 298.977 C 154.027 300.577,151.603 297.986,153.462 295.931 C 154.325 294.978,155.404 295.004,156.400 296.000 M220.933 295.970 C 224.964 297.806,224.708 302.221,220.399 305.161 C 218.192 306.667,218.189 306.864,220.336 309.600 C 221.113 310.590,221.792 311.461,221.844 311.537 C 222.199 312.044,223.588 310.967,223.795 310.023 C 224.218 308.095,225.354 307.347,226.610 308.170 C 227.770 308.930,227.700 309.608,226.212 312.000 C 224.661 314.494,224.677 314.670,226.631 316.653 C 228.683 318.734,228.679 318.785,226.410 319.089 C 224.948 319.286,224.603 319.166,223.472 318.070 L 222.191 316.828 219.996 317.914 C 214.361 320.703,208.428 317.927,208.407 312.492 C 208.399 310.435,209.855 307.902,211.549 307.026 C 213.060 306.245,213.293 305.521,212.584 303.823 C 210.248 298.233,215.356 293.429,220.933 295.970 M253.298 295.965 C 257.559 297.431,258.124 298.239,256.304 300.265 L 255.526 301.130 253.470 300.097 C 249.660 298.184,246.205 298.470,245.000 300.800 C 244.004 302.725,244.934 303.336,252.309 305.602 C 259.550 307.827,260.571 315.198,254.039 318.097 C 248.140 320.715,237.731 317.069,241.200 313.600 C 242.178 312.622,242.434 312.611,243.649 313.500 C 248.024 316.701,254.000 315.935,254.000 312.173 C 254.000 310.749,249.620 308.432,246.878 308.405 C 245.663 308.393,242.762 306.697,241.800 305.436 C 237.308 299.546,245.085 293.139,253.298 295.965 M216.500 298.670 C 215.330 299.486,215.227 302.338,216.331 303.338 C 217.296 304.211,217.343 304.201,218.986 302.759 C 221.880 300.217,219.617 296.495,216.500 298.670 M0.000 311.171 C 0.000 317.857,0.144 321.600,0.400 321.600 C 0.776 321.600,0.951 319.492,0.996 314.400 C 1.007 313.190,1.138 311.930,1.288 311.600 C 1.938 310.170,1.436 301.018,0.700 300.876 C 0.048 300.751,0.000 301.453,0.000 311.171 M103.728 302.829 C 106.806 303.684,109.935 308.022,109.531 310.875 C 109.401 311.791,109.337 311.801,103.209 311.911 C 96.133 312.038,95.812 312.170,97.673 314.200 C 99.349 316.030,101.698 316.451,104.637 315.449 C 106.391 314.852,106.594 314.852,107.256 315.451 C 109.941 317.881,101.400 320.189,97.400 318.115 C 88.422 313.460,93.948 300.113,103.728 302.829 M116.728 303.500 C 116.882 304.586,116.676 304.582,118.825 303.533 C 121.454 302.248,124.413 302.095,126.129 303.156 C 128.210 304.442,128.435 305.416,128.311 312.608 L 128.200 319.000 126.800 319.000 L 125.400 319.000 125.200 313.311 C 124.959 306.456,124.595 305.779,121.178 305.829 C 117.419 305.885,117.020 306.534,116.888 312.816 C 116.765 318.672,116.538 319.306,114.634 319.120 L 113.400 319.000 113.292 310.677 L 113.184 302.353 114.892 302.477 C 116.313 302.579,116.621 302.751,116.728 303.500 M157.000 310.800 L 157.000 319.000 155.400 319.000 L 153.800 319.000 153.691 311.212 C 153.564 302.105,153.521 302.312,155.497 302.476 L 157.000 302.600 157.000 310.800 M165.528 303.500 C 165.684 304.602,165.554 304.608,167.659 303.405 C 170.549 301.753,173.826 302.254,175.350 304.580 C 175.921 305.451,176.003 306.588,175.910 312.301 L 175.800 319.000 174.400 319.000 L 173.000 319.000 172.789 313.400 C 172.519 306.232,171.428 304.537,167.996 305.960 C 165.642 306.936,165.600 307.056,165.600 312.895 C 165.600 318.824,165.402 319.367,163.324 319.129 L 162.200 319.000 162.092 310.677 L 161.984 302.353 163.692 302.477 C 165.113 302.579,165.421 302.751,165.528 303.500 M190.137 303.100 C 190.831 303.485,191.611 304.070,191.870 304.400 C 192.372 305.037,192.330 305.090,192.997 302.976 C 193.139 302.524,193.608 302.386,194.697 302.476 L 196.200 302.600 196.298 311.200 C 196.412 321.236,196.142 322.220,192.814 323.900 C 189.099 325.775,181.200 324.658,181.200 322.257 C 181.200 320.941,182.133 320.678,184.253 321.397 C 188.623 322.881,192.800 321.405,192.800 318.378 C 192.800 316.896,192.438 316.712,191.294 317.612 C 186.366 321.488,179.797 317.464,179.849 310.600 C 179.894 304.583,185.478 300.513,190.137 303.100 M273.015 303.207 C 275.754 304.533,276.065 305.560,275.922 312.800 L 275.800 319.000 274.538 319.122 C 273.603 319.213,273.117 319.017,272.658 318.361 C 272.051 317.495,272.003 317.490,270.306 318.138 C 265.361 320.027,260.795 317.879,260.803 313.668 C 260.810 309.458,265.459 307.211,270.321 309.068 C 272.294 309.821,272.822 309.495,272.485 307.731 C 272.097 305.704,267.440 304.996,264.200 306.473 C 262.856 307.085,261.541 306.023,262.244 304.892 C 263.671 302.595,269.777 301.640,273.015 303.207 M281.367 302.643 C 281.715 302.776,282.000 303.052,282.000 303.255 C 282.000 303.960,286.102 314.000,286.389 314.000 C 286.687 314.000,287.012 313.281,289.188 307.800 C 291.208 302.714,291.274 302.615,292.751 302.472 C 295.191 302.236,295.302 302.499,293.991 305.421 C 293.336 306.881,292.800 308.225,292.800 308.409 C 292.800 308.594,292.291 309.882,291.668 311.272 C 291.046 312.662,290.217 314.610,289.827 315.600 C 288.743 318.353,288.591 318.573,287.515 318.957 C 285.494 319.678,284.608 319.037,283.297 315.907 C 278.508 304.467,277.949 302.984,278.297 302.636 C 278.605 302.328,280.558 302.332,281.367 302.643 M308.528 302.829 C 310.876 303.481,312.970 305.616,313.776 308.180 C 314.943 311.889,315.106 311.784,308.004 311.911 C 300.933 312.038,300.612 312.171,302.473 314.200 C 304.149 316.030,306.498 316.451,309.437 315.449 C 311.191 314.852,311.394 314.852,312.056 315.451 C 314.636 317.785,306.235 320.200,302.400 318.227 C 293.187 313.487,298.534 300.054,308.528 302.829 M321.528 303.500 C 321.684 304.600,321.527 304.608,323.700 303.394 C 325.913 302.156,326.800 302.397,326.800 304.235 C 326.800 305.387,326.639 305.617,325.700 305.807 C 325.095 305.930,323.970 306.338,323.200 306.715 L 321.800 307.400 321.688 312.774 C 321.565 318.674,321.340 319.306,319.434 319.120 L 318.200 319.000 318.092 310.677 L 317.984 302.353 319.692 302.477 C 321.113 302.579,321.421 302.751,321.528 303.500 M99.316 305.730 C 97.895 306.250,96.832 307.425,96.813 308.500 C 96.801 309.125,97.271 309.200,101.200 309.200 C 105.127 309.200,105.599 309.125,105.591 308.500 C 105.562 306.224,102.120 304.705,99.316 305.730 M304.116 305.730 C 302.695 306.250,301.632 307.425,301.613 308.500 C 301.601 309.125,302.071 309.200,306.000 309.200 C 309.927 309.200,310.399 309.125,310.391 308.500 C 310.362 306.224,306.920 304.705,304.116 305.730 M138.464 306.007 C 133.850 307.948,135.235 315.600,140.200 315.600 C 143.213 315.600,144.002 314.572,143.987 310.671 C 143.971 306.493,141.756 304.623,138.464 306.007 M186.600 305.869 C 185.370 306.193,184.071 307.573,183.572 309.085 C 182.029 313.761,187.130 317.439,191.453 314.767 L 192.800 313.935 192.797 310.667 C 192.794 306.675,190.446 304.857,186.600 305.869 M213.087 309.509 C 209.819 312.920,213.558 317.228,218.340 315.561 C 220.082 314.954,219.939 314.342,217.342 311.270 C 214.671 308.110,214.497 308.038,213.087 309.509 M265.454 311.629 C 263.005 313.556,264.785 316.555,268.377 316.553 C 271.303 316.552,273.073 315.026,272.553 312.954 C 272.026 310.857,267.507 310.014,265.454 311.629 M57.873 398.661 C 57.667 398.866,57.005 398.926,52.700 399.129 C 51.875 399.168,51.200 399.380,51.200 399.600 C 51.200 399.852,53.943 400.000,58.629 400.000 C 65.489 400.000,66.048 399.946,65.924 399.300 C 65.791 398.609,58.503 398.030,57.873 398.661 M327.072 398.662 C 325.916 399.817,326.888 400.000,334.200 400.000 C 338.867 400.000,341.600 399.852,341.600 399.600 C 341.600 399.380,341.870 399.200,342.200 399.200 C 342.530 399.200,342.800 399.380,342.800 399.600 C 342.800 399.820,343.610 400.000,344.600 400.000 C 345.590 400.000,346.400 399.845,346.400 399.655 C 346.400 399.183,341.493 398.717,339.676 399.016 C 338.663 399.183,338.375 399.138,338.757 398.871 C 339.130 398.611,337.334 398.467,333.329 398.436 C 330.037 398.411,327.221 398.512,327.072 398.662 " stroke="none" fill="#4e7baa" fill-rule="evenodd"></path><path id="path4" d="M398.093 189.200 C 398.093 189.970,398.175 190.285,398.276 189.900 C 398.376 189.515,398.376 188.885,398.276 188.500 C 398.175 188.115,398.093 188.430,398.093 189.200 M1.328 314.400 C 1.328 315.830,1.401 316.415,1.489 315.700 C 1.578 314.985,1.578 313.815,1.489 313.100 C 1.401 312.385,1.328 312.970,1.328 314.400 M189.905 398.283 C 190.402 398.379,191.122 398.375,191.505 398.275 C 191.887 398.175,191.480 398.096,190.600 398.101 C 189.720 398.105,189.407 398.187,189.905 398.283 M209.100 398.282 C 209.595 398.378,210.405 398.378,210.900 398.282 C 211.395 398.187,210.990 398.109,210.000 398.109 C 209.010 398.109,208.605 398.187,209.100 398.282 M55.300 398.676 C 55.685 398.776,56.315 398.776,56.700 398.676 C 57.085 398.575,56.770 398.493,56.000 398.493 C 55.230 398.493,54.915 398.575,55.300 398.676 M339.700 398.676 C 340.085 398.776,340.715 398.776,341.100 398.676 C 341.485 398.575,341.170 398.493,340.400 398.493 C 339.630 398.493,339.315 398.575,339.700 398.676 " stroke="none" fill="#00ffff" fill-rule="evenodd"></path></g></svg>