<svg id="svg" version="1.1" width="400" height="399.7868939797549" viewBox="0 0 400 399.7868939797549" xmlns="http://www.w3.org/2000/svg" xmlns:xlink="http://www.w3.org/1999/xlink" ><g id="svgg"><path id="path0" d="" stroke="none" fill="#000000" fill-rule="evenodd"></path><path id="path1" d="" stroke="none" fill="#aaaaaa" fill-rule="evenodd"></path><path id="path2" d="M197.287 12.941 C 197.670 12.988,198.245 12.987,198.565 12.939 C 198.886 12.890,198.572 12.851,197.869 12.852 C 197.166 12.854,196.904 12.893,197.287 12.941 M201.549 12.941 C 201.932 12.988,202.507 12.987,202.827 12.939 C 203.148 12.890,202.834 12.851,202.131 12.852 C 201.428 12.854,201.166 12.893,201.549 12.941 M322.643 58.671 C 322.643 58.708,322.954 59.019,323.335 59.363 L 324.028 59.989 323.402 59.297 C 322.818 58.651,322.643 58.506,322.643 58.671 M327.864 63.506 C 328.560 64.209,329.177 64.784,329.235 64.784 C 329.294 64.784,328.773 64.209,328.077 63.506 C 327.381 62.802,326.763 62.227,326.705 62.227 C 326.646 62.227,327.168 62.802,327.864 63.506 M332.232 67.661 C 332.987 68.423,333.653 69.046,333.712 69.046 C 333.770 69.046,333.200 68.423,332.445 67.661 C 331.690 66.899,331.025 66.276,330.966 66.276 C 330.907 66.276,331.477 66.899,332.232 67.661 M336.281 71.923 C 337.036 72.685,337.702 73.308,337.761 73.308 C 337.819 73.308,337.249 72.685,336.494 71.923 C 335.739 71.161,335.074 70.538,335.015 70.538 C 334.956 70.538,335.526 71.161,336.281 71.923 M338.839 74.694 C 339.236 75.104,339.609 75.440,339.668 75.440 C 339.727 75.440,339.449 75.104,339.052 74.694 C 338.654 74.283,338.281 73.948,338.222 73.948 C 338.164 73.948,338.441 74.283,338.839 74.694 M340.543 76.612 C 340.941 77.022,341.314 77.357,341.373 77.357 C 341.432 77.357,341.154 77.022,340.757 76.612 C 340.359 76.201,339.986 75.866,339.927 75.866 C 339.868 75.866,340.146 76.201,340.543 76.612 M351.838 90.783 C 352.088 91.135,352.341 91.422,352.400 91.422 C 352.458 91.422,352.302 91.135,352.051 90.783 C 351.801 90.432,351.548 90.144,351.489 90.144 C 351.431 90.144,351.588 90.432,351.838 90.783 M354.920 95.205 C 355.249 95.703,355.558 96.111,355.608 96.111 C 355.761 96.111,354.946 94.814,354.625 94.549 C 354.459 94.412,354.592 94.707,354.920 95.205 M364.198 110.389 C 364.437 110.858,364.681 111.241,364.740 111.241 C 364.798 111.241,364.650 110.858,364.411 110.389 C 364.172 109.920,363.928 109.536,363.870 109.536 C 363.811 109.536,363.959 109.920,364.198 110.389 M365.903 113.586 C 366.258 114.289,366.596 114.864,366.655 114.864 C 366.714 114.864,366.471 114.289,366.116 113.586 C 365.761 112.882,365.423 112.307,365.364 112.307 C 365.306 112.307,365.548 112.882,365.903 113.586 M368.052 117.741 C 368.052 117.858,368.236 118.290,368.460 118.700 C 368.685 119.110,368.869 119.350,368.869 119.233 C 368.869 119.116,368.685 118.684,368.460 118.274 C 368.236 117.864,368.052 117.624,368.052 117.741 M386.841 190.410 C 386.844 190.879,386.887 191.046,386.938 190.781 C 386.989 190.516,386.987 190.132,386.934 189.928 C 386.881 189.725,386.839 189.941,386.841 190.410 M387.080 197.017 C 387.081 198.306,387.116 198.806,387.158 198.128 C 387.201 197.449,387.200 196.394,387.157 195.783 C 387.114 195.172,387.080 195.727,387.080 197.017 M12.836 198.402 C 12.836 198.812,12.880 198.980,12.933 198.775 C 12.987 198.570,12.987 198.234,12.933 198.029 C 12.880 197.824,12.836 197.991,12.836 198.402 M387.074 202.770 C 387.074 203.708,387.112 204.065,387.157 203.564 C 387.202 203.063,387.201 202.295,387.155 201.859 C 387.110 201.423,387.073 201.833,387.074 202.770 M12.836 202.025 C 12.836 202.435,12.880 202.603,12.933 202.397 C 12.987 202.192,12.987 201.857,12.933 201.652 C 12.880 201.446,12.836 201.614,12.836 202.025 M386.837 209.909 C 386.837 210.320,386.881 210.487,386.934 210.282 C 386.988 210.077,386.988 209.742,386.934 209.536 C 386.881 209.331,386.837 209.499,386.837 209.909 " stroke="none" fill="#ffffff" fill-rule="evenodd"></path><path id="path3" d="" stroke="none" fill="#0000ff" fill-rule="evenodd"></path><path id="path4" d="M194.033 0.228 C 76.554 3.660,-12.472 107.435,1.720 224.401 C 6.487 263.689,22.951 300.794,48.902 330.739 C 52.196 334.540,60.222 343.101,60.491 343.101 C 60.563 343.101,60.232 342.711,59.755 342.234 L 58.888 341.367 63.275 337.004 L 67.661 332.641 65.637 330.711 C 64.523 329.649,63.612 328.700,63.612 328.602 C 63.612 328.503,63.112 327.914,62.500 327.291 C 60.880 325.642,59.494 324.134,59.598 324.134 C 59.648 324.134,59.469 323.910,59.200 323.636 C 58.931 323.362,58.327 322.669,57.858 322.095 C 57.389 321.522,56.526 320.515,55.940 319.858 C 55.354 319.201,54.683 318.392,54.449 318.060 C 54.214 317.728,53.399 316.673,52.637 315.715 C 51.875 314.757,51.043 313.694,50.787 313.353 C 48.821 310.729,47.520 308.952,46.883 308.025 C 45.409 305.876,41.617 300.140,41.051 299.201 C 40.732 298.673,40.092 297.633,39.629 296.889 C 39.165 296.144,38.785 295.502,38.785 295.462 C 38.785 295.421,38.438 294.794,38.013 294.069 C 35.551 289.869,31.338 281.738,29.740 278.103 C 29.406 277.342,28.913 276.239,28.647 275.653 C 20.864 258.553,15.326 236.873,13.539 216.516 C 4.869 117.762,74.282 29.639,172.403 14.831 C 180.088 13.671,190.893 12.787,197.389 12.786 L 200.107 12.786 200.107 6.393 C 200.107 0.433,200.081 0.002,199.734 0.036 C 199.529 0.056,196.963 0.142,194.033 0.228 " stroke="none" fill="#578dbc" fill-rule="evenodd"></path><path id="path5" d="" stroke="none" fill="#8080ff" fill-rule="evenodd"></path><path id="path6" d="M193.340 12.933 C 193.546 12.987,193.881 12.987,194.086 12.933 C 194.291 12.880,194.124 12.836,193.713 12.836 C 193.303 12.836,193.135 12.880,193.340 12.933 M70.418 64.838 L 69.792 65.530 70.485 64.904 C 71.130 64.321,71.275 64.145,71.111 64.145 C 71.074 64.145,70.762 64.457,70.418 64.838 M64.877 70.378 L 64.251 71.071 64.944 70.445 C 65.325 70.101,65.637 69.789,65.637 69.752 C 65.637 69.588,65.461 69.733,64.877 70.378 M336.281 328.817 C 336.281 328.951,336.185 329.002,336.068 328.929 C 335.951 328.857,335.855 328.884,335.855 328.989 C 335.855 329.239,330.324 334.802,327.757 337.134 C 326.661 338.130,325.461 339.233,325.092 339.584 C 324.722 339.936,323.906 340.655,323.278 341.183 C 322.651 341.710,321.911 342.349,321.634 342.601 C 321.357 342.854,320.736 343.382,320.253 343.774 C 319.771 344.165,319.253 344.607,319.103 344.756 C 318.953 344.904,318.369 345.377,317.806 345.807 C 317.243 346.236,316.670 346.690,316.532 346.815 C 315.679 347.591,311.008 351.116,308.791 352.657 C 308.029 353.186,307.357 353.683,307.299 353.760 C 307.007 354.146,297.148 360.456,293.980 362.285 C 281.222 369.651,268.479 375.204,254.662 379.417 C 252.493 380.078,250.432 380.708,250.080 380.816 C 246.319 381.971,234.354 384.561,229.835 385.198 C 229.366 385.264,228.455 385.404,227.810 385.509 C 225.533 385.880,223.706 386.109,219.286 386.577 C 216.294 386.894,215.352 386.973,212.999 387.105 C 211.827 387.171,210.341 387.273,209.696 387.332 C 207.571 387.526,196.664 387.581,192.648 387.418 C 185.346 387.123,177.724 386.411,172.190 385.509 C 171.545 385.404,170.634 385.264,170.165 385.198 C 165.429 384.530,153.812 381.997,149.600 380.712 C 149.073 380.552,147.011 379.924,145.019 379.319 C 130.283 374.839,113.376 367.181,101.948 359.809 C 100.967 359.175,100.122 358.657,100.070 358.657 C 99.968 358.657,93.826 354.528,91.676 353.013 C 90.371 352.094,84.751 347.900,84.247 347.469 C 84.110 347.352,83.775 347.084,83.501 346.874 C 83.228 346.664,82.717 346.252,82.365 345.959 C 82.014 345.666,81.453 345.215,81.119 344.956 C 80.785 344.698,80.354 344.330,80.160 344.140 C 79.967 343.949,79.329 343.387,78.743 342.891 C 78.157 342.394,77.265 341.639,76.762 341.212 C 76.258 340.786,75.299 339.930,74.630 339.310 C 73.962 338.691,73.103 337.923,72.722 337.605 C 72.340 337.287,71.033 336.055,69.817 334.866 L 67.605 332.705 63.243 337.039 L 58.881 341.374 61.568 343.995 C 66.447 348.756,71.632 353.316,76.057 356.739 C 77.496 357.853,79.228 359.196,79.905 359.723 C 80.582 360.250,81.364 360.844,81.644 361.042 C 81.924 361.240,83.591 362.421,85.349 363.667 C 139.059 401.738,210.443 410.398,272.349 386.354 C 293.909 377.981,313.726 366.012,331.273 350.767 C 334.380 348.068,347.163 335.705,345.846 336.672 C 345.556 336.886,345.255 336.690,343.941 335.431 C 343.082 334.610,342.363 333.937,342.342 333.937 C 342.322 333.937,341.784 333.434,341.146 332.818 C 337.906 329.689,336.281 328.353,336.281 328.817 " stroke="none" fill="#61a0d0" fill-rule="evenodd"></path><path id="path7" d="M254.746 7.835 C 254.616 7.921,254.393 8.375,254.250 8.844 C 254.107 9.313,253.952 9.817,253.905 9.965 C 253.859 10.113,253.812 10.279,253.801 10.334 C 253.790 10.389,253.586 11.083,253.346 11.877 C 252.477 14.761,252.305 16.625,252.884 16.889 C 253.461 17.152,253.494 17.468,253.070 18.647 C 252.578 20.010,252.639 20.201,253.649 20.468 C 256.053 21.102,265.044 24.233,268.940 25.792 C 374.576 68.063,418.662 192.140,363.398 291.642 C 360.297 297.226,354.897 305.690,351.569 310.183 C 350.791 311.234,349.886 312.456,349.558 312.899 C 349.229 313.341,348.863 313.821,348.742 313.964 C 348.621 314.108,347.780 315.184,346.871 316.356 C 345.963 317.528,344.831 318.935,344.356 319.483 C 343.880 320.031,343.475 320.555,343.456 320.648 C 343.436 320.740,343.060 321.203,342.619 321.676 C 341.190 323.210,340.970 323.477,340.970 323.676 C 340.970 323.784,340.737 324.024,340.453 324.211 C 340.169 324.397,339.874 324.745,339.798 324.984 C 339.722 325.223,339.590 325.375,339.504 325.322 C 339.417 325.269,339.161 325.483,338.933 325.799 C 338.705 326.114,338.118 326.770,337.627 327.256 C 337.137 327.742,336.793 328.198,336.864 328.268 C 336.934 328.339,336.828 328.396,336.629 328.396 C 336.377 328.396,336.510 328.608,337.065 329.089 C 338.303 330.163,339.864 331.592,341.140 332.818 C 341.781 333.434,342.322 333.937,342.342 333.937 C 342.363 333.937,343.092 334.619,343.963 335.452 L 345.545 336.967 347.322 335.097 C 348.299 334.068,349.451 332.795,349.882 332.269 C 350.313 331.742,350.943 331.015,351.281 330.653 C 351.619 330.291,352.243 329.572,352.666 329.055 C 353.090 328.538,353.706 327.827,354.035 327.474 C 362.289 318.633,375.846 296.787,382.719 281.250 C 428.208 178.434,380.298 58.283,276.683 15.324 C 271.749 13.279,260.689 9.318,259.776 9.269 C 259.718 9.266,259.567 9.198,259.442 9.118 C 259.316 9.038,258.958 8.926,258.646 8.870 C 258.334 8.813,257.997 8.716,257.897 8.655 C 257.797 8.593,257.392 8.486,256.997 8.416 C 256.601 8.346,256.158 8.190,256.012 8.069 C 255.865 7.947,255.646 7.910,255.523 7.986 C 255.401 8.061,255.301 8.022,255.301 7.897 C 255.301 7.636,255.082 7.611,254.746 7.835 M68.507 66.755 L 67.235 68.087 68.567 66.815 C 69.804 65.634,69.996 65.424,69.839 65.424 C 69.806 65.424,69.206 66.023,68.507 66.755 M66.265 68.993 L 65.530 69.792 66.329 69.058 C 66.769 68.654,67.128 68.294,67.128 68.259 C 67.128 68.096,66.948 68.249,66.265 68.993 " stroke="none" fill="#6cb3e3" fill-rule="evenodd"></path><path id="path8" d="M200.107 6.500 L 200.107 12.786 202.824 12.786 C 214.954 12.787,232.432 15.011,244.626 18.107 C 245.516 18.332,246.484 18.565,246.777 18.623 C 247.070 18.682,248.221 18.985,249.334 19.297 C 250.448 19.608,251.502 19.893,251.678 19.929 C 251.854 19.966,252.149 20.055,252.333 20.128 C 252.592 20.231,252.728 20.030,252.933 19.241 C 253.461 17.211,253.460 17.152,252.902 16.898 L 252.384 16.662 252.648 14.990 C 252.793 14.071,253.107 12.672,253.345 11.881 C 253.584 11.090,253.726 10.442,253.662 10.442 C 253.597 10.442,253.637 10.322,253.750 10.176 C 253.863 10.029,254.079 9.454,254.230 8.897 C 254.381 8.340,254.611 7.877,254.743 7.867 C 254.963 7.850,254.125 7.540,253.383 7.364 C 253.207 7.323,252.488 7.131,251.785 6.939 C 250.357 6.549,249.954 6.442,249.334 6.287 C 249.100 6.228,248.716 6.132,248.482 6.074 C 248.247 6.015,247.864 5.919,247.629 5.860 C 246.572 5.596,246.209 5.512,245.711 5.417 C 245.418 5.361,245.035 5.264,244.859 5.200 C 239.243 3.181,215.074 0.213,204.244 0.213 L 200.107 0.213 200.107 6.500 M332.339 67.555 C 333.153 68.375,333.867 69.046,333.926 69.046 C 333.984 69.046,333.366 68.375,332.552 67.555 C 331.738 66.734,331.024 66.063,330.965 66.063 C 330.906 66.063,331.525 66.734,332.339 67.555 M387.050 191.369 C 387.050 191.779,387.094 191.947,387.147 191.742 C 387.201 191.537,387.201 191.201,387.147 190.996 C 387.094 190.791,387.050 190.959,387.050 191.369 M387.295 200.426 C 387.295 201.833,387.330 202.380,387.372 201.643 C 387.413 200.906,387.413 199.755,387.371 199.086 C 387.329 198.417,387.295 199.020,387.295 200.426 " stroke="none" fill="#88c5e9" fill-rule="evenodd"></path><path id="path9" d="" stroke="none" fill="#bfbfff" fill-rule="evenodd"></path><path id="path10" d="M206.127 12.933 C 206.332 12.987,206.668 12.987,206.873 12.933 C 207.078 12.880,206.910 12.836,206.500 12.836 C 206.090 12.836,205.922 12.880,206.127 12.933 M387.050 192.648 C 387.050 193.058,387.094 193.226,387.147 193.021 C 387.201 192.816,387.201 192.480,387.147 192.275 C 387.094 192.070,387.050 192.238,387.050 192.648 M387.050 207.565 C 387.050 207.975,387.094 208.143,387.147 207.938 C 387.201 207.733,387.201 207.397,387.147 207.192 C 387.094 206.987,387.050 207.155,387.050 207.565 " stroke="none" fill="#aad5d5" fill-rule="evenodd"></path><path id="path11" d="M329.568 64.997 C 330.264 65.701,330.882 66.276,330.940 66.276 C 330.999 66.276,330.477 65.701,329.782 64.997 C 329.086 64.294,328.468 63.719,328.410 63.719 C 328.351 63.719,328.873 64.294,329.568 64.997 M334.896 70.325 C 335.592 71.028,336.209 71.604,336.268 71.604 C 336.327 71.604,335.805 71.028,335.109 70.325 C 334.413 69.622,333.796 69.046,333.737 69.046 C 333.679 69.046,334.200 69.622,334.896 70.325 M387.054 194.033 C 387.057 194.502,387.100 194.669,387.151 194.403 C 387.202 194.138,387.200 193.755,387.147 193.551 C 387.094 193.347,387.052 193.564,387.054 194.033 M387.059 206.074 C 387.059 206.601,387.100 206.817,387.151 206.553 C 387.202 206.289,387.202 205.858,387.151 205.594 C 387.100 205.330,387.059 205.546,387.059 206.074 " stroke="none" fill="#c6e3e3" fill-rule="evenodd"></path><path id="path12" d="" stroke="none" fill="#d5d5ff" fill-rule="evenodd"></path><path id="path13" d="" stroke="none" fill="#80ffff" fill-rule="evenodd"></path><path id="path14" d="" stroke="none" fill="#bfffff" fill-rule="evenodd"></path></g></svg>